<svg version="1.1" xmlns="http://www.w3.org/2000/svg" viewBox="0 0 200 200">
    <path fill="#24798F" d="M100.1,200c-43.3,0-81.5-27.9-95-69.5c-0.6-1.9,0.4-3.9,2.3-4.6c1.9-0.6,3.9,0.4,4.5,2.3
        c12.5,38.6,47.9,64.5,88.2,64.5c51.2,0,92.8-42,92.8-93.6c0-9.5-1.5-19.2-4.3-28.1c-0.6-1.9,0.4-3.9,2.3-4.5
        c1.9-0.6,3.9,0.5,4.5,2.4c3,9.6,4.6,20.1,4.6,30.3C200,154.8,155.2,200,100.1,200z"/>
    <path fill="#F9D44A" d="M29.5,104.7l-9.2,0V29c0-1.4-0.8-2.7-2.1-3.4l-6.2-3.1l6.2-3.1c1.3-0.6,2.1-1.9,2.1-3.4V7.5H159v33.4
        c0,2.1,1.7,3.8,3.7,3.8c2.1,0,3.7-1.7,3.7-3.8V6.5c0-3.6-2.9-6.5-6.4-6.5H19.3c-3.6,0-6.4,2.9-6.4,6.5v7.2L2.1,19.2
        C0.8,19.8,0,21.1,0,22.5c0,1.4,0.8,2.7,2.1,3.4l10.8,5.4v74.4c0,3.6,2.9,6.5,6.4,6.5l10.2,0c2,0,3.7-1.7,3.7-3.7
        c0-1-0.4-2-1.1-2.7C31.4,105.1,30.5,104.7,29.5,104.7z"/>
    <path fill="#24798F" d="M170.2,79.7c0-7.5-6-13.6-13.5-13.6h-27.4c4.7-9.6,7.2-21,7.2-33c0-7.5-6-13.6-13.5-13.6
        c-7.4,0-13.5,6.1-13.5,13.6c0,18.2-14.7,33-32.7,33H58.1c-2.1,0-3.7,1.7-3.7,3.8v78.6c0,2.1,1.7,3.8,3.7,3.8h18.8
        c2.1,0,3.7-1.7,3.7-3.8V73.4C101.1,71.5,117,54,117,33.1c0-3.3,2.7-6.1,6-6.1s6,2.7,6,6.1c0,13.1-3.3,25.5-9.3,34.7
        c-0.7,1.2-0.8,2.6-0.2,3.8c0.7,1.2,1.9,2,3.3,2l33.8,0c3.3,0,6,2.7,6,6.1c0,3.3-2.7,6.1-6,6.1h-12c-2.1,0-3.7,1.7-3.7,3.8
        s1.7,3.8,3.7,3.8h8c3.3,0,6,2.7,6,6.1c0,3.3-2.7,6.1-6,6.1h-8c-2.1,0-3.7,1.7-3.7,3.8s1.7,3.8,3.7,3.8h4c3.3,0,6,2.7,6,6.1
        s-2.7,6.1-6,6.1h-4c-2.1,0-3.7,1.7-3.7,3.8c0,2.1,1.7,3.8,3.7,3.8c3.3,0,6,2.7,6,6.1s-2.7,6.1-6,6.1H91.4c-2.1,0-3.7,1.7-3.7,3.8
        s1.7,3.8,3.7,3.8h53.3c7.4,0,13.5-6.1,13.5-13.6c0-2.9-0.9-5.7-2.6-8c4-2.4,6.6-6.8,6.6-11.7c0-2.9-0.9-5.7-2.6-8
        c4-2.4,6.6-6.8,6.6-11.7c0-2.9-0.9-5.7-2.6-8C167.6,88.9,170.2,84.5,170.2,79.7z M73.1,73.6v71.1H61.8V73.6H73.1z"/>
    <path fill="#24798F" d="M139,138.9V79.4c0-2.1-1.7-3.8-3.7-3.8c-2.1,0-3.7,1.7-3.7,3.8v59.5c0,2.1,1.7,3.8,3.7,3.8
        C137.3,142.7,139,141,139,138.9z"/>
</svg>
