<svg version="1.1" xmlns="http://www.w3.org/2000/svg" viewBox="0 0 200 200">
	<path fill="#FFFFFF" d="M100,26.6c-40.5,0-73.4,32.9-73.4,73.4c0,40.5,32.9,73.4,73.4,73.4c40.5,0,73.4-32.9,73.4-73.4
		C173.4,59.5,140.5,26.6,100,26.6z"/>
	<path fill="#FFFFFF" d="M198.9,96.4c-2.6-3.9-8.2-8.4-13.6-11.1c-6.2-36-34.6-64.4-70.6-70.6c-2.6-5.3-7.1-10.9-11.1-13.6
		c-2.3-1.5-5-1.5-7.3,0c-3.9,2.6-8.4,8.2-11.1,13.6c-36,6.2-64.4,34.6-70.6,70.6C9.3,88,3.6,92.6,1,96.6c-1.4,2.1-1.4,4.6,0,6.7
		c2.6,4,8.3,8.6,13.7,11.3c6.2,36,34.6,64.4,70.6,70.6c2.7,5.4,7.3,11.1,11.3,13.7c2.1,1.4,4.6,1.4,6.7,0c4-2.6,8.6-8.3,11.3-13.7
		c36-6.2,64.4-34.6,70.6-70.6c5.3-2.6,10.9-7.1,13.6-11.1C200.4,101.3,200.4,98.7,198.9,96.4z M100,179.3
		c-43.7,0-79.3-35.6-79.3-79.3S56.3,20.7,100,20.7c43.7,0,79.3,35.6,79.3,79.3S143.7,179.3,100,179.3z"/>
</svg>
