<svg version="1.1" xmlns="http://www.w3.org/2000/svg" viewBox="0 0 200 236">
	<path fill="#6E7D7D" d="M41,79.4c5.7,3.4,12,5.1,18.4,5.1c6.3,0,12.7-1.7,18.4-5.1c13.5-8,20.8-23.9,20-43.5
		C96.9,12.1,77.3,0.6,59.5,0c-0.1,0-0.2,0-0.4,0C41.4,0.6,21.8,12.1,20.9,35.9C20.2,55.5,27.5,71.3,41,79.4z M59.3,10.6
		c9,0.4,18.1,4.1,23.4,11.7c-14.8,6.7-33.2,11-51.1,12C33.2,18.6,46.4,11.1,59.3,10.6z M86.7,32c0.2,1.3,0.4,2.8,0.5,4.2
		c0.6,15.6-4.8,28-14.9,34c-8,4.8-17.9,4.8-25.9,0c-8.1-4.8-13.2-13.9-14.6-25.4C50.9,43.8,70.7,39.2,86.7,32z M95.5,131.5l3,16.5
		c0.5,2.9,3.3,4.8,6.2,4.2c2.9-0.5,4.8-3.3,4.2-6.2l-3-16.5c-4.4-23.6-26.6-34.2-46.7-34.2c0,0,0,0,0,0c0,0,0,0,0,0
		c-20.1,0-42.2,10.7-46.6,34.2L0.1,197c-0.3,1.5,0.1,3.2,1.1,4.4c1,1.2,2.5,1.9,4.1,1.9h64.1c2.9,0,5.3-2.4,5.3-5.3
		s-2.4-5.3-5.3-5.3l-57.7,0l11.3-61.1c2-10.9,9.4-18.1,18.4-22l10.4,26h-2.5c-2.9,0-5.3,2.4-5.3,5.3v29.6c0,2.9,2.4,5.2,5.3,5.2
		h20.2c2.9,0,5.1-2.3,5.1-5.2v-29.6c0-2.9-2.2-5.3-5.1-5.3H67l10.4-25.9C86.3,113.6,93.5,120.7,95.5,131.5z M63.9,165.2h-9.5v-19
		h9.5V165.2z M59.3,126.2l-7.8-19.6c2.6-0.4,5.2-0.6,7.7-0.6c2.6,0,5.3,0.2,8,0.7L59.3,126.2z"/>
	<path fill="#7F2F2F" d="M178.2,172.8c0.8,0,1.6-0.2,2.3-0.5l8.3-4.1c2.6-1.3,3.7-4.5,2.4-7.1c-1.3-2.6-4.5-3.7-7.1-2.4l-8.3,4.1
		c-2.6,1.3-3.7,4.5-2.4,7.1C174.4,171.7,176.3,172.8,178.2,172.8z"/>
	<path fill="#7F2F2F" d="M194.7,184l-9.2,0c-2.9,0-5.3,2.4-5.3,5.3c0,2.9,2.4,5.3,5.3,5.3l9.2,0c2.9,0,5.3-2.4,5.3-5.3
		C200,186.4,197.6,184,194.7,184z"/>
	<path fill="#7F2F2F" d="M188.9,210.4l-8.3-4.1c-2.6-1.3-5.8-0.2-7.1,2.4c-1.3,2.6-0.2,5.8,2.4,7.1l8.3,4.1c0.7,0.4,1.5,0.5,2.3,0.5
		c2,0,3.8-1.1,4.7-3C192.6,214.9,191.5,211.7,188.9,210.4z"/>
	<path fill="#7F2F2F" d="M160.2,153.1c-1.4-1-3.2-1.1-4.9-0.5l-36.8,13.7H93c-2.9,0-5.5,2.2-5.5,5.1v59.3c0,2.9,2.4,5.3,5.3,5.3
		s5.3-2.4,5.3-5.3v-18.4h20.5l36.8,13.8c1.6,0.6,3.5,0.4,4.9-0.6c1.4-1,2.3-2.6,2.3-4.3v-63.8C162.5,155.7,161.6,154,160.2,153.1z
		 M114.4,201.7H98v-24.9h16.4V201.7z M151.9,213.6L125,203.5v-28.4l26.9-10.1V213.6z"/>
</svg>
