<svg version="1.1" xmlns="http://www.w3.org/2000/svg" viewBox="0 0 200 216">

	<path fill="#FFFFFF" d="M100,28.4c-48,0-87,39.2-87,87.3c0,48.1,39,87.3,87,87.3s87-39.2,87-87.3C187,67.6,148,28.4,100,28.4z"/>
	<path fill="#FFFFFF" d="M116,16.7c-2.3-5.2-5.9-10.5-9.5-14.1c-3.6-3.5-9.4-3.5-13,0c-3.6,3.5-7.2,8.9-9.5,14.1
		c-47.6,7.7-84,49.1-84,99C0,171.1,44.8,216,100,216s100-44.9,100-100.3C200,65.8,163.6,24.4,116,16.7z M100,209.2
		c-51.5,0-93.2-41.8-93.2-93.5c0-51.6,41.7-93.5,93.2-93.5c51.5,0,93.2,41.8,93.2,93.5C193.2,167.3,151.5,209.2,100,209.2z"/>

	<path fill="#6E7D7D" d="M57.6,124.5c-7.5,0-14.6-3.6-19-9.7c-0.8-1.1-0.6-2.7,0.6-3.6c1.1-0.8,2.7-0.6,3.5,0.6
		c3.4,4.8,9,7.6,14.9,7.6c5.8,0,11.4-2.8,14.8-7.6c0.8-1.1,2.4-1.4,3.5-0.6c1.1,0.8,1.4,2.4,0.6,3.6
		C72.1,120.9,65,124.5,57.6,124.5z"/>

	<path fill="#6E7D7D" d="M146.2,121.4c-12.5,0-22.8-9.8-23.4-22.4c-0.1-1.4,1-2.6,2.4-2.7c1.4,0,2.6,1,2.7,2.4
		c0.5,9.8,8.5,17.5,18.3,17.5c10.1,0,18.3-8.2,18.3-18.4c0-0.8-0.1-1.7-0.2-2.5c-0.2-1.4,0.8-2.7,2.2-2.9c1.4-0.2,2.7,0.8,2.9,2.2
		c0.1,1.1,0.2,2.1,0.2,3.2C169.6,110.9,159.1,121.4,146.2,121.4z"/>

	<path fill="#F8CA0B" d="M78.4,116.8c-5,0-9.1-4.1-9.1-9.2v-6.2c0-4.9-2.9-9.1-7.3-10.9c-1,4.1-1.5,4.7-2.5,5.2
		c-0.3,0.2-0.7,0.3-1.1,0.3H47.1c-0.9,1.7-1.3,3.5-1.3,5.4v6.2c0,5-4.1,9.2-9.1,9.2c-5,0-9.1-4.1-9.1-9.2v-6.2
		c0-16.6,13.5-30.1,30-30.1s30,13.5,30,30.1v6.2C87.5,112.6,83.4,116.8,78.4,116.8z M60.1,84.8c0.2,0,0.3,0,0.5,0
		c8,1.5,13.8,8.4,13.8,16.6v6.2c0,2.2,1.8,4.1,4.1,4.1c2.2,0,4.1-1.8,4.1-4.1v-6.2c0-13.8-11.2-25-24.9-25s-24.9,11.2-24.9,25v6.2
		c0,2.2,1.8,4.1,4.1,4.1c2.2,0,4.1-1.8,4.1-4.1v-6.2c0-3.4,1-6.6,2.8-9.4c0.5-0.7,1.3-1.1,2.1-1.1h11c0.2-0.8,0.5-2,1-4.1
		C57.9,85.6,58.9,84.8,60.1,84.8z"/>

	<path fill="#6E7D7D" d="M37.6,154.8C37.6,154.8,37.6,154.8,37.6,154.8c-1.4,0-2.5-1.1-2.5-2.6l0-9.1c0.1-9.4,6.4-17.8,15.4-20.4
		c0.9-0.3,1.9,0,2.5,0.7c0.7,0.7,0.9,1.6,0.6,2.5c-0.2,0.6-0.3,1.2-0.3,1.7c0,1.4,0.5,2.8,1.3,3.8c0.8,0.9,1.9,1.4,3,1.4
		c1.1,0,2.2-0.5,3-1.4c0.9-1,1.4-2.3,1.4-3.8c0-0.5-0.1-1.1-0.3-1.7c-0.3-0.9,0-1.9,0.7-2.5c0.7-0.7,1.6-0.9,2.5-0.6
		c4.8,1.5,9,4.6,11.8,8.9c0.8,1.2,0.4,2.8-0.8,3.5c-1.2,0.8-2.7,0.4-3.5-0.8c-1.4-2.2-3.3-4-5.5-5.3c-0.3,2.1-1.2,4-2.6,5.6
		c-1.8,2-4.2,3.1-6.8,3.1c-2.6,0-5-1.1-6.7-3.1c-1.4-1.6-2.2-3.5-2.5-5.6c-4.9,2.8-8.2,8.2-8.2,14l0,9.1
		C40.1,153.7,39,154.8,37.6,154.8z"/>

	<path fill="#6E7D7D" d="M167.9,154.9c-1.5,0-2.6-1.2-2.6-2.6v-10.4c0-5.9-3.6-11.2-9-14.1c-0.7,5-4.9,8.8-9.9,8.8s-9.2-3.8-9.9-8.8
		c-2.9,1.5-5.4,3.8-7,6.5c-0.7,1.3-2.3,1.7-3.6,1c-1.3-0.7-1.7-2.4-1-3.6c2.9-5,7.9-8.8,13.7-10.4c0.9-0.3,1.9,0,2.6,0.7
		c0.7,0.7,0.9,1.7,0.6,2.6c-0.2,0.6-0.3,1.1-0.3,1.6c0,2.8,2.1,5.1,4.8,5.1s4.8-2.3,4.8-5.1c0-0.5-0.1-1-0.3-1.6
		c-0.3-0.9-0.1-1.9,0.6-2.6c0.7-0.7,1.7-1,2.6-0.7c9.7,2.7,16.5,11.1,16.5,20.6v10.4C170.5,153.7,169.3,154.9,167.9,154.9z"/>

	<path fill="#6E7D7D" d="M119,178.7c-1.4,0-2.5-1.1-2.5-2.5c0-5-2.7-9.5-6.8-12.1c-0.5,2.5-2.5,5.4-8.5,5.4s-7.9-2.8-8.5-5.4
		c-4.1,2.5-6.8,7.1-6.8,12.1c0,1.4-1.1,2.5-2.5,2.5s-2.5-1.1-2.5-2.5c0-8.5,5.7-16.1,13.8-18.5c0.9-0.3,1.9,0,2.5,0.6
		c0.7,0.7,0.9,1.6,0.6,2.5c-0.2,0.5-0.2,1-0.2,1.4c0,1.1,0,2.1,3.6,2.1c3.6,0,3.6-1,3.6-2.1c0-0.4-0.1-0.9-0.2-1.4
		c-0.3-0.9,0-1.9,0.6-2.5c0.7-0.7,1.6-0.9,2.5-0.6c8.1,2.4,13.8,10,13.8,18.5C121.6,177.6,120.4,178.7,119,178.7z"/>

	<path fill="#6E7D7D" d="M128.6,102c-4,0-7.2-2.3-8.4-6c-0.1-0.3-0.1-0.7-0.1-1.1c1.5-13.5,12.9-23.7,26.4-23.7
		c12.4,0,23,8.4,25.9,20.5c0.1,0.6,0.1,1.2-0.2,1.8c-1.5,2.9-4.4,4.5-7.7,4.5c-2.6,0-4.9-0.9-6.5-2.7c-0.9-1-1.5-2.1-1.9-3.4
		c-5.2,2-10.5,3-15.8,3c-0.9,0-1.9,0-2.9-0.1c-0.3,1.7-1,3.2-2.1,4.4C133.5,101,131.2,102,128.6,102z M125.2,94.9
		c0.5,1,1.4,2,3.4,2c1.2,0,2.1-0.4,2.8-1.1c0.8-0.9,1.1-2.2,1-3.5c-0.1-0.8,0.2-1.5,0.7-2.1c0.6-0.6,1.3-0.8,2.1-0.7
		c1.8,0.2,3.5,0.3,5,0.3c5.6,0,11.4-1.3,16.8-3.8c0.8-0.4,1.8-0.3,2.5,0.2s1.1,1.4,1.1,2.3c-0.1,1.3,0.3,2.6,1,3.4
		c0.7,0.7,1.6,1.1,2.8,1.1s2.1-0.4,2.8-1.1c-2.7-9.2-11-15.5-20.6-15.5C135.7,76.3,126.7,84.3,125.2,94.9z"/>

	<path fill="#6E7D7D" d="M101.3,160.9c-10.3,0-18.6-8.4-18.6-18.7c0-2.4,0.4-4.7,1.3-6.8c0.5-1.3,2-1.9,3.3-1.4
		c1.3,0.5,1.9,2,1.4,3.3c-0.6,1.6-0.9,3.3-0.9,5c0,7.5,6.1,13.6,13.6,13.6s13.6-6.1,13.6-13.6c0-1.7-0.3-3.4-1-5
		c-0.5-1.3,0.1-2.8,1.4-3.3c1.3-0.5,2.8,0.1,3.3,1.4c0.9,2.2,1.3,4.5,1.3,6.9C119.9,152.6,111.6,160.9,101.3,160.9z"/>

	<path fill="#F8CA0B" d="M100.9,140.4c-5.7,0-11.3-0.6-16.5-1.8c-0.7-0.2-1.3-0.6-1.7-1.3c-0.3-0.6-0.4-1.4-0.1-2.1
		c2.9-7.8,10.4-13,18.7-13c8.2,0,15.7,5.2,18.6,12.8c0.3,0.7,0.2,1.4-0.1,2.1c-0.3,0.6-0.9,1.1-1.7,1.3
		C112.8,139.7,107,140.4,100.9,140.4z M88.8,134.3c8,1.4,17.1,1.3,25-0.1c-2.7-4.2-7.3-6.8-12.5-6.8
		C96.2,127.3,91.4,130,88.8,134.3z"/>
</svg>
