<svg version="1.1" xmlns="http://www.w3.org/2000/svg"
	 viewBox="0 0 200 154">
	<path d="M174.9,0H25.1C11.2,0,0,11.2,0,24.9v104.1C0,142.8,11.2,154,25.1,154h149.8c13.8,0,25.1-11.2,25.1-24.9V24.9
		C200,11.2,188.8,0,174.9,0z M190.5,129.1c0,8.5-7,15.5-15.6,15.5H25.1c-8.6,0-15.6-6.9-15.6-15.5V24.9c0-8.5,7-15.5,15.6-15.5
		h149.8c8.6,0,15.6,6.9,15.6,15.5V129.1z"/>
	<path
d="M167.9,25.9l-58.2,46.6c-5.7,4.5-13.9,4.5-19.5,0L32.1,25.9c-2-1.6-5-1.3-6.7,0.7c-1.7,2-1.3,5,0.7,6.7
		l58.2,46.6c4.6,3.7,10.1,5.5,15.7,5.5c5.6,0,11.2-1.8,15.7-5.5l58.2-46.6c2-1.6,2.4-4.6,0.7-6.7C173,24.6,170,24.3,167.9,25.9z"/>
</svg>
