<svg version="1.1" xmlns="http://www.w3.org/2000/svg" viewBox="0 0 166 192">
	<path fill="#FACB10" d="M110.8,192H53.5c-1.9,0-3.5-1.6-3.5-3.6s1.6-3.6,3.5-3.6h57.3c1.9,0,3.5,1.6,3.5,3.6S112.7,192,110.8,192z"/>
	<path fill="#6D7B7C" d="M52.1,159.7c-8.9,0-9.4-0.1-9.8-0.2c-9.7-1-42.4-8.9-42.4-69.8C0,29,32.4,20.9,42.6,19.9
		c0.8-0.1,2.7-0.2,9.6-0.2c4.4,0,8.5,2.2,10.8,6c0,0,0,0,0,0c2.4,3.8,2.7,8.5,0.8,12.5l-8,17.6c-1.7,3.9-5.3,6.7-9.5,7.4l-17.9,3.1
		c-2.3,9.5-2.6,19.4-2.6,23.3c0,5,0.4,14.4,2.6,23.4l18,3.1c4.2,0.7,7.7,3.5,9.5,7.4l8,17.7c1.9,4,1.6,8.7-0.8,12.5
		C60.6,157.4,56.5,159.7,52.1,159.7z M52.1,26.8c-3.6,0-7.9,0.1-8.6,0.2C20.6,29.2,7,52.6,7,89.7c0,37,13.6,60.5,36.3,62.8
		c1.2,0.1,8.8,0.1,8.8,0.1c2,0,3.8-1,4.9-2.7c1.1-1.7,1.2-3.8,0.4-5.6l-8-17.7c-0.8-1.8-2.5-3-4.4-3.3l-20.2-3.5
		c-1.3-0.2-2.4-1.2-2.8-2.5c-3-10.5-3.4-21.7-3.4-27.5c0-4.6,0.3-16.4,3.4-27.4c0.4-1.3,1.5-2.3,2.8-2.5l20.2-3.5
		c1.9-0.3,3.5-1.6,4.3-3.3l8-17.7c0.9-1.8,0.7-3.9-0.4-5.7l0,0C56,27.8,54.1,26.8,52.1,26.8z"/>
	<path fill="#FACB10" d="M152.1,85.1h-29.4h-0.1c-0.2-10-1.3-19.7-3.2-29c6.5-3.4,12.6-7.5,17.8-12.3c1.4-1.3,1.6-3.6,0.3-5
		c-1.3-1.5-3.5-1.6-5-0.3c-2.5,2.3-5.2,4.3-8.1,6.3c-0.9,0.6-1.8,1.1-2.7,1.7c-1.3,0.8-2.7,1.6-4.1,2.3c-3.6-13.3-9-24.7-15.6-33.2
		c-1.2-1.5-3.4-1.8-4.9-0.6c-1.5,1.2-1.8,3.5-0.6,5c6.3,8,11.3,19.1,14.6,32c-8.9,3.8-18.3,6-28,6.4V20.9c0-2-1.6-3.6-3.5-3.6
		c-1.9,0-3.5,1.6-3.5,3.6v37.6c-3.4-0.1-6.7-0.4-9.9-0.9c-1.9-0.3-3.7,1-4,2.9c-0.3,1.9,1,3.8,2.9,4.1c3.6,0.6,7.3,0.9,11,1v19.5
		H65.8c-1.9,0-3.5,1.6-3.5,3.6c0,2,1.6,3.6,3.5,3.6h10.4l0,20.7c-3.8,0.1-7.4,0.4-11,1c-1.9,0.3-3.2,2.2-2.9,4.1c0.3,1.7,1.8,3,3.5,3
		c0.2,0,0.4,0,0.6,0c3.2-0.5,6.4-0.8,9.8-0.9v36.7c0,2,1.6,3.6,3.5,3.6s3.5-1.6,3.5-3.6v-36.6c9.6,0.4,18.8,2.5,27.6,6.2
		c-3.5,12.9-8.7,23.8-15.2,31.5c-1.3,1.5-1.1,3.7,0.4,5c0.7,0.6,1.5,0.8,2.3,0.8c1,0,2-0.4,2.7-1.3c6.9-8.3,12.5-19.7,16.3-33.1
		c5.3,2.9,10.3,6.3,14.9,10.4c0.7,0.6,1.5,0.9,2.3,0.9c1,0,1.9-0.4,2.6-1.2c1.3-1.5,1.1-3.7-0.3-5c-5.4-4.8-11.4-8.9-17.8-12.1
		c2.2-9.6,3.4-19.6,3.6-30h0.1h29.4c1.9,0,3.5-1.6,3.5-3.6C155.6,86.7,154,85.1,152.1,85.1z M83.2,65.7c10.2-0.4,20.2-2.6,29.7-6.5
		c1.6,8.3,2.6,17,2.7,25.9H83.2V65.7z M83.2,92.3h32.4c-0.2,9.3-1.3,18.4-3.1,27c-9.3-3.8-19.2-6-29.3-6.4L83.2,92.3z"/>
	<path fill="#FACB10" d="M78.8,177c-4.4,0-8.9-0.3-13.4-1c-1.9-0.3-3.2-2.1-2.9-4c0.3-1.9,2.1-3.3,4-3c49.5,7.6,92.6-31.4,92.6-80.4
		c0-44.9-36-81.3-80.2-81.3c-4.3,0-8.5,0.3-12.6,1c-1.9,0.3-3.7-1-4-2.9c-0.3-1.9,1-3.8,2.9-4.1C69.5,0.4,74.1,0,78.8,0
		C126.9,0,166,39.7,166,88.5C166,137.3,126.9,177,78.8,177z"/>
</svg>
