<svg version="1.1" xmlns="http://www.w3.org/2000/svg" viewBox="0 0 202 192">
	<path fill="#FACB10" d="M129.5,192h-57c-1.9,0-3.5-1.6-3.5-3.5c0-2,1.6-3.5,3.5-3.5h57c1.9,0,3.5,1.6,3.5,3.5
		C133,190.4,131.4,192,129.5,192z"/>
	<path fill="#FACB10" d="M101,88.4c-14.8,0-26.9-12.3-26.9-27.3c0-15.1,12-27.3,26.9-27.3s26.9,12.3,26.9,27.3
		C127.9,76.1,115.8,88.4,101,88.4z M101,40.8c-11,0-19.9,9.1-19.9,20.2c0,11.2,8.9,20.2,19.9,20.2s19.9-9.1,19.9-20.2
		C120.9,49.9,112,40.8,101,40.8z"/>
	<path fill="#FACB10" d="M104.5,176.5c-16.3,0-33.2-2.6-50.4-7.8l-2.5-0.7v-30.5c0-20.1,16.1-36.5,35.8-36.5h27.2
		c9.6,0,18.6,3.8,25.3,10.7c6.8,6.9,10.5,16,10.5,25.8v30.6l-2.2,0.9C142.7,171.3,127.4,176.5,104.5,176.5z M58.6,162.7
		c15.7,4.5,31.2,6.8,46,6.8c19.1,0,32.5-3.8,38.9-6.2v-25.7c0-7.8-3-15.2-8.5-20.7c-5.4-5.6-12.7-8.7-20.4-8.7H87.4
		c-15.9,0-28.8,13.2-28.8,29.4V162.7z M146.9,165.7L146.9,165.7L146.9,165.7z"/>
	<path fill="#6D7B7C" d="M49.5,54.7c-14.8,0-26.9-12.3-26.9-27.3C22.5,12.3,34.6,0,49.5,0c14.8,0,26.8,12.3,26.8,27.4
		c0,1.6-0.1,3.1-0.4,4.6c-0.1,0.7-0.5,1.4-1,1.9c-4,3.9-7.1,8.9-9,14.2c-0.2,0.7-0.7,1.3-1.3,1.7C60.2,53,54.9,54.7,49.5,54.7z
		 M49.5,7.1c-11,0-19.9,9.1-19.9,20.3c0,11.2,8.9,20.2,19.9,20.2c3.7,0,7.2-1,10.3-3c2.1-5.6,5.4-10.7,9.4-14.9
		c0.1-0.7,0.1-1.5,0.1-2.3C69.3,16.2,60.4,7.1,49.5,7.1z M72.5,31.4L72.5,31.4L72.5,31.4z"/>
	<path fill="#6D7B7C" d="M37.7,142.1c-0.1,0-0.2,0-0.3,0c-11.2-1.1-22.9-3.4-34.8-6.9c-1.5-0.4-2.5-1.8-2.5-3.4L0,103.9
		c0-20.1,16.1-36.5,35.9-36.5h25.6c1.6,0,3,1.1,3.4,2.7c1.6,6.4,4.7,12.2,9.2,17c0.8,0.9,1.1,2.1,0.9,3.3c-0.3,1.2-1.1,2.1-2.3,2.5
		c-6.6,2.3-12.8,6.2-17.8,11.2c-1.4,1.4-3.6,1.4-4.9,0s-1.3-3.6,0-5c4.6-4.6,9.9-8.4,15.8-11c-3-4.1-5.4-8.7-6.9-13.5H35.9
		C19.9,74.5,7,87.7,7,103.9L7,129.1c9.7,2.8,19.3,4.7,28.5,5.7c0.6-0.5,1.3-0.8,2.2-0.8c1.9,0,3.5,1.6,3.5,3.5v1c0,1-0.4,2-1.1,2.6
		C39.4,141.8,38.5,142.1,37.7,142.1z"/>
	<path fill="#6D7B7C" d="M152.6,54.7c-5.5,0-10.8-1.7-15.2-4.8c-0.7-0.5-1.2-1.2-1.4-2.1c-1.9-5.3-5-10.1-8.9-13.9
		c-0.5-0.5-0.9-1.2-1-1.9c-0.3-1.5-0.4-3-0.4-4.6c0-15.1,12.1-27.4,26.9-27.4c14.8,0,26.8,12.3,26.8,27.4
		C179.5,42.5,167.4,54.7,152.6,54.7z M142.2,44.7c3.1,1.9,6.7,3,10.4,3c11,0,19.9-9.1,19.9-20.2c0-11.2-8.9-20.3-19.9-20.3
		c-11,0-19.9,9.1-19.9,20.3c0,0.8,0,1.5,0.1,2.3C136.9,33.9,140.1,39.1,142.2,44.7z"/>
	<path fill="#6D7B7C" d="M164.3,142.6c-0.9,0-1.7-0.3-2.4-1c-0.7-0.7-1.1-1.6-1.1-2.6v-1.5c0-2,1.6-3.5,3.5-3.5c1.1,0,2.1,0.5,2.7,1.3
		c13-1,22.4-3.7,28-5.8v-25.7c0-7.8-3-15.2-8.5-20.7c-5.5-5.6-12.7-8.6-20.4-8.6h-22.9c-1.5,4.8-3.8,9.4-6.9,13.5
		c5.9,2.7,11.2,6.4,15.8,11.1c1.4,1.4,1.4,3.6,0,5c-1.4,1.4-3.6,1.4-4.9,0c-5.1-5.1-11.1-8.9-17.9-11.3c-1.1-0.4-2-1.3-2.3-2.5
		c-0.3-1.2,0-2.4,0.8-3.3c4.5-4.9,7.7-10.7,9.1-17c0.4-1.6,1.8-2.7,3.4-2.7h25.6c9.6,0,18.5,3.8,25.3,10.7
		c6.8,6.9,10.6,16,10.6,25.8v28.2c0,1.5-0.9,2.8-2.2,3.3c-5.7,2.3-17.8,6.3-35.3,7.3C164.5,142.6,164.4,142.6,164.3,142.6z"/>
</svg>
