<svg version="1.1" xmlns="http://www.w3.org/2000/svg" viewBox="0 0 114 114">
	<path fill="#2793B2" d="M90.3,36.4c-2.4,1.1-5.1,1.8-7.8,2.1c2.8-1.7,5-4.4,6-7.5c-2.6,1.6-5.6,2.7-8.7,3.3c-2.5-2.7-6-4.3-10-4.3
		c-7.5,0-13.7,6.1-13.7,13.6c0,1.1,0.1,2.1,0.4,3.1c-11.3-0.6-21.4-6-28.1-14.3c-1.2,2-1.8,4.4-1.8,6.9c0,4.7,2.4,8.9,6.1,11.4
		c-2.2-0.1-4.3-0.7-6.2-1.7v0.2c0,6.6,4.7,12.1,10.9,13.4C36.2,62.8,35,63,33.8,63c-0.9,0-1.7-0.1-2.6-0.2
		c1.7,5.4,6.8,9.4,12.7,9.5c-4.7,3.7-10.6,5.8-17,5.8c-1.1,0-2.2-0.1-3.3-0.2c6,3.9,13.2,6.1,20.9,6.1c25.1,0,38.8-20.8,38.8-38.8
		l0-1.8C86.1,41.5,88.4,39.1,90.3,36.4z"/>
	<path fill="#2793B2" d="M57,114C25.6,114,0,88.4,0,57C0,25.6,25.6,0,57,0c31.4,0,57,25.6,57,57C114,88.4,88.4,114,57,114z M57,3.1
		C27.3,3.1,3.1,27.3,3.1,57s24.2,53.9,53.9,53.9s53.9-24.2,53.9-53.9S86.7,3.1,57,3.1z"/>
</svg>
