<?xml version="1.0" encoding="utf-8"?>
<!-- Generator: Adobe Illustrator 19.2.0, SVG Export Plug-In . SVG Version: 6.00 Build 0)  -->
<svg version="1.1" id="Layer_1" xmlns="http://www.w3.org/2000/svg" xmlns:xlink="http://www.w3.org/1999/xlink" x="0px" y="0px"
	 viewBox="0 0 200 200" style="enable-background:new 0 0 200 200;" xml:space="preserve">
<style type="text/css">
	.st0{fill:#F7D559;}
	.st1{fill:#21778F;}
	.st2{fill:#FFFFFF;}
	.st3{font-family:'PTSans-Bold';}
	.st4{font-size:42px;}
</style>
<path class="st0" d="M158,66H42c-3.3,0-6,2.7-6,6v56c0,3.3,2.7,6,6,6h116c3.3,0,6-2.7,6-6V72C164,68.7,161.3,66,158,66z"/>
<g>
	<path class="st1" d="M100,200C44.9,200,0,155.1,0,100C0,45,44.8,0.2,99.8,0h0.1c43.9,0,82.2,28.1,95.4,69.9
		c3,9.5,4.6,19.9,4.6,30.1C200,155.1,155.1,200,100,200z M99.9,3.6l0,3.6C48.8,7.3,7.2,49,7.2,100c0,51.2,41.6,92.8,92.8,92.8
		c51.2,0,92.8-41.6,92.8-92.8c0-9.4-1.5-19.1-4.3-27.9C176.3,33.3,140.7,7.2,100,7.2L99.9,3.6z"/>
</g>
<text transform="matrix(1 0 0 1 59.6179 113.1169)" class="st2 st3 st4">LIVE</text>
</svg>
