<svg version="1.1" xmlns="http://www.w3.org/2000/svg" viewBox="0 0 38 54">
	<path fill="#DFE1E1" d="M19,47.6c-0.5,0-1-0.2-1.4-0.6l-13-15.3C1.7,28.1,0,23.7,0,19.1C0,8.6,8.5,0,19,0s19,8.6,19,19.1
		c0,4.6-1.7,9-4.7,12.5l-13,15.3C20,47.3,19.5,47.6,19,47.6z M19,3.6c-8.5,0-15.4,6.9-15.4,15.5c0,3.7,1.3,7.3,3.8,10.2
		c0,0,0,0,0,0L19,43l11.6-13.7c0,0,0,0,0,0c2.4-2.8,3.8-6.4,3.8-10.2C34.4,10.5,27.5,3.6,19,3.6z"/>
	<ellipse fill="#DFE1E1" cx="19" cy="18.7" rx="8.6" ry="8.6"/>
	<path fill="#DFE1E1" d="M30.8,54H7.2c-1,0-1.8-0.8-1.8-1.8s0.8-1.8,1.8-1.8h23.7c1,0,1.8,0.8,1.8,1.8S31.8,54,30.8,54z"/>
</svg>
