<svg version="1.1" xmlns="http://www.w3.org/2000/svg" viewBox="0 0 40 40">
	<path fill="#87999e" d="M31.1,26.7L31,26.3c-0.3-0.8-1.1-1.6-1.9-1.8l-3-0.8c-0.8-0.2-1.9,0.1-2.5,0.7l-1.1,1.1c-3.9-1.1-6.9-4.1-8-8
		l1.1-1.1c0.6-0.6,0.9-1.7,0.7-2.5l-0.8-3c-0.2-0.8-1-1.7-1.8-1.9l-0.3-0.1c-0.8-0.3-1.9,0-2.5,0.6L9.2,11c-0.3,0.3-0.5,1.1-0.5,1.1
		c-0.1,5.1,1.9,10,5.5,13.6c3.6,3.6,8.5,5.6,13.5,5.5c0,0,0.9-0.2,1.1-0.5l1.6-1.6C31.1,28.6,31.4,27.5,31.1,26.7z"/>
	<path fill="#87999e" d="M20,1.6c2.5,0,4.9,0.5,7.2,1.4c2.2,0.9,4.2,2.3,5.9,4c1.7,1.7,3,3.7,4,5.9c1,2.3,1.4,4.7,1.4,7.2
		S38,24.9,37,27.2c-0.9,2.2-2.3,4.2-4,5.9c-1.7,1.7-3.7,3-5.9,4c-2.3,1-4.7,1.4-7.2,1.4S15.1,38,12.8,37c-2.2-0.9-4.2-2.3-5.9-4
		c-1.7-1.7-3-3.7-4-5.9c-1-2.3-1.4-4.7-1.4-7.2S2,15.1,3,12.8C3.9,10.6,5.3,8.7,7,7c1.7-1.7,3.7-3,5.9-4C15.1,2,17.5,1.6,20,1.6
	 	M20,0C9,0,0,9,0,20s9,20,20,20s20-9,20-20S31,0,20,0L20,0z"/>
</svg>
