<svg version="1.1" xmlns="http://www.w3.org/2000/svg" viewBox="0 0 200 200">
	<path d="M100,0C44.9,0,0,44.9,0,100c0,55.1,44.9,100,100,100c55.1,0,100-44.9,100-100C200,44.9,155.1,0,100,0z
		 M100,194.5c-52.1,0-94.5-42.4-94.5-94.5S47.9,5.5,100,5.5s94.5,42.4,94.5,94.5S152.1,194.5,100,194.5z"/>
	<polygon points="73.4,86.6 81,86.6 81,60.5 89.9,38.1 81.6,38.1 76.9,54.7 72.1,38.1 63.9,38.1 73.4,60.5 	"/>
	<path d="M89.3,72.9c0,3,0.1,5.2,0.4,6.7c0.3,1.5,0.8,2.8,1.5,3.8c0.7,1,1.7,1.8,3,2.4c1.3,0.5,2.8,0.8,4.6,0.8
		c1.6,0,3.1-0.3,4.3-0.9c1.2-0.6,2.3-1.6,3.1-2.8c0.8-1.3,1.3-2.7,1.6-4.1c0.2-1.5,0.4-3.8,0.4-6.9v-8.6c0-2.5-0.1-4.3-0.4-5.6
		c-0.3-1.2-0.8-2.4-1.5-3.5c-0.7-1.1-1.7-2.1-3.1-2.8c-1.3-0.7-2.9-1.1-4.8-1.1c-2.2,0-4,0.6-5.4,1.7c-1.4,1.1-2.4,2.6-2.9,4.4
		c-0.5,1.8-0.8,4.4-0.8,7.7L89.3,72.9z M95.6,59.3c0-1.9,1.4-3.5,3.2-3.5c1.7,0,3.2,1.6,3.2,3.5v18.1c0,1.9-1.4,3.5-3.2,3.5
		c-1.7,0-3.2-1.6-3.2-3.5V59.3z"/>
	<path d="M113.5,83.1c0.4,0.9,0.9,1.6,1.7,2.2c0.8,0.5,1.8,0.8,2.9,0.8c1,0,2-0.3,2.7-0.9c0.8-0.6,1.5-1.4,2-2.6
		l-0.1,2.8h8v-34h-6.3V78c0,1.4-1.2,2.6-2.6,2.6c-1.4,0-2.6-1.2-2.6-2.6V51.5h-6.6v22.9c0,2.9,0.1,4.9,0.1,5.9
		C112.9,81.3,113.2,82.2,113.5,83.1z"/>
	<path d="M134.7,93.5H65.3c-9.3,0-16.9,7.2-16.9,15.9V146c0,8.8,7.6,15.9,16.9,15.9h69.4c9.3,0,16.9-7.2,16.9-15.9
		v-36.5C151.6,100.7,144,93.5,134.7,93.5z M62.7,150v-38.6l-7.2,0v-5.6l22.9,0v5.7l-8.6,0l0,38.5H62.7z M90,149.9l0-4.2
		c-1.5,3.3-7.7,6-11,3.7c-1.7-1.2-1.7-3.4-1.8-5.3c-0.1-1.1,0-3.4,0-6.5l0-20.4h7.1l0,20.7c0,2.8-0.1,4.5,0,5c1,3.1,3.6,1.4,4.2-0.2
		c0.2-0.5,0-2,0-5v-20.5h7.2l0,32.7L90,149.9z M106.4,146.9l-0.5,2.7l-5.9,0.1l0-43.9l7.2,0l0,12.7c6.6-5.3,11.5-1.4,11.5,5.1
		l0,17.1C118.7,149,113.9,153.8,106.4,146.9z M123,138.5v-10.2c0-3.1,0.3-5.5,0.9-7.2c0.6-1.8,1.6-3.1,3-4.1
		c4.3-3.1,12.9-2.2,13.8,4c0.3,1.9,0.4,5.3,0.4,8.7v4.6h-12.3v4.3v3.3v0.3c0,1.6,1.3,2.9,2.9,2.9h1.1c1.6,0,2.9-1.3,2.9-2.9v-3
		c0-0.3,0-0.5,0-0.7l5.4,0C143.6,153,123,155.4,123,138.5z"/>
	<path d="M135.8,124.7c0-1.8-1.4-3.2-3.2-3.2h-0.4c-1.8,0-3.2,1.4-3.2,3.2l0,3.9h6.8L135.8,124.7z"/>
	<path d="M110.2,120.2c-1.7,0-3.1,1.2-3.1,2.6V142c0,1.4,1.4,2.6,3.1,2.6c1.7,0,3.1-1.2,3.1-2.6v-19.2
		C113.3,121.4,111.9,120.2,110.2,120.2z"/>
</svg>
