<svg version="1.1" xmlns="http://www.w3.org/2000/svg" viewBox="0 0 200 200">
	<path d="M100,0C44.9,0,0,44.9,0,100c0,55.1,44.9,100,100,100c55.1,0,100-44.9,100-100C200,44.9,155.1,0,100,0z
		 M100,194.5c-52.1,0-94.5-42.4-94.5-94.5S47.9,5.5,100,5.5s94.5,42.4,94.5,94.5S152.1,194.5,100,194.5z"/>
	<path d="M121.2,104.5c-12.9,8.1-29.5,8.1-42.4,0c-1.5-0.9-3.1-1.4-4.8-1.4c-3.1,0-6.2,1.5-8,4.3
		c-2.7,4.3-1.4,10,2.9,12.7c5.7,3.6,11.9,6.1,18.3,7.6l-17.6,17.6c-3.6,3.6-3.6,9.4,0,13c1.8,1.8,4.2,2.7,6.5,2.7
		c2.4,0,4.7-0.9,6.5-2.7L100,141l17.3,17.3c3.6,3.6,9.4,3.6,13,0c3.6-3.6,3.6-9.4,0-13l-17.6-17.6c6.4-1.5,12.6-4,18.3-7.6
		c4.3-2.7,5.6-8.4,2.9-12.7C131.2,103,125.5,101.7,121.2,104.5z"/>
	<path d="M100,102c17.3,0,31.5-14.1,31.5-31.5c0-17.3-14.1-31.5-31.5-31.5c-17.4,0-31.5,14.1-31.5,31.5
		C68.5,87.9,82.7,102,100,102z M100,57.5c7.2,0,13,5.8,13,13c0,7.2-5.8,13-13,13c-7.2,0-13-5.8-13-13C87,63.3,92.8,57.5,100,57.5z"
		/>
</svg>
