<svg version="1.1" xmlns="http://www.w3.org/2000/svg" viewBox="0 0 200 200">
	<path d="M155.1,54.3c-4.6,2.7-9.8,4.7-15.2,5.8c-4.4-4.7-10.6-7.6-17.5-7.6c-13.2,0-23.9,10.7-23.9,23.9
		c0,1.9,0.2,3.7,0.6,5.5c-19.9-1-37.5-10.5-49.4-25c-2.1,3.5-3.2,7.6-3.2,12c0,8.3,4.2,15.6,10.7,19.9c-3.9-0.1-7.6-1.2-10.8-3v0.3
		c0,11.6,8.3,21.3,19.2,23.5c-2,0.5-4.1,0.8-6.3,0.8c-1.5,0-3-0.2-4.5-0.4c3,9.5,11.9,16.4,22.4,16.6c-8.2,6.4-18.5,10.2-29.7,10.2
		c-1.9,0-3.8-0.1-5.7-0.3c10.6,6.8,23.2,10.8,36.7,10.8c44,0,68.1-36.5,68.1-68.1l-0.1-3.1c4.7-3.4,8.8-7.6,12-12.4
		c-4.3,1.9-8.9,3.2-13.8,3.8C149.6,64.6,153.3,59.9,155.1,54.3z"/>
	<path d="M100,0C44.9,0,0,44.9,0,100c0,55.1,44.9,100,100,100c55.1,0,100-44.9,100-100C200,44.9,155.1,0,100,0z
		 M100,194.5c-52.1,0-94.5-42.4-94.5-94.5S47.9,5.5,100,5.5s94.5,42.4,94.5,94.5S152.1,194.5,100,194.5z"/>
</svg>
