<svg version="1.1" xmlns="http://www.w3.org/2000/svg" viewBox="0 0 114 114">
	<path fill="#376497" d="M57,114C25.6,114,0,88.4,0,57C0,25.6,25.6,0,57,0c31.4,0,57,25.6,57,57C114,88.4,88.4,114,57,114z M57,3.1
		C27.3,3.1,3.1,27.3,3.1,57s24.2,53.9,53.9,53.9s53.9-24.2,53.9-53.9S86.7,3.1,57,3.1z"/>
	<path fill="#376497" d="M48.3,36.5c0,1.7,0.1,9.9,0.1,9.9h-7V57l7,0l0.1,33.4h14.1V57l9,0c0,0,0.7-4.6,1.1-10.5c-1.2,0-10.1,0-10.1,0
		s-0.2-7.3-0.2-8.4c0-1.1,1.5-2.7,3-2.7c1.5,0,4.6,0,7.5,0c0-1.5,0-6.8,0-11.7c-3.9,0-8.3,0-10.2,0C47.9,23.6,48.3,34.9,48.3,36.5z
		"/>
</svg>
