<svg version="1.1" xmlns="http://www.w3.org/2000/svg" viewBox="0 0 114 114">
	<path fill="#775D2C" d="M57,114C25.6,114,0,88.4,0,57C0,25.6,25.6,0,57,0c31.4,0,57,25.6,57,57C114,88.4,88.4,114,57,114z M57,3.1
		C27.3,3.1,3.1,27.3,3.1,57s24.2,53.9,53.9,53.9s53.9-24.2,53.9-53.9S86.7,3.1,57,3.1z"/>
	<path fill="#775D2C" d="M77.9,33.8h-4.6c-1.3,0-2.3,1-2.3,2.3v4.6c0,1.3,1,2.3,2.3,2.3h4.6c1.3,0,2.3-1,2.3-2.3v-4.6
		C80.2,34.9,79.1,33.8,77.9,33.8z"/>
	<path fill="#775D2C" d="M57,65.8c4.9,0,8.8-4,8.8-8.8c0-4.9-4-8.8-8.8-8.8c-1.7,0-3.2,0.5-4.6,1.3c0.4-0.1,0.9-0.2,1.3-0.2
		c2.5,0,4.5,2,4.5,4.5c0,2.5-2,4.5-4.5,4.5c-2.5,0-4.5-2-4.5-4.5c0-0.5,0.1-0.9,0.2-1.3c-0.8,1.3-1.3,2.9-1.3,4.6
		C48.2,61.9,52.1,65.8,57,65.8z"/>
	<path fill="#775D2C" d="M75.8,26.9H38.2c-6.2,0-11.3,5.1-11.3,11.3v37.7c0,6.2,5.1,11.3,11.3,11.3h37.7c6.2,0,11.3-5.1,11.3-11.3V38.2
		C87.1,31.9,82.1,26.9,75.8,26.9z M43.4,54.3c0.1-0.4,0.2-0.7,0.3-1.1c0.1-0.5,0.3-1,0.4-1.4c0.2-0.4,0.4-0.8,0.6-1.2
		c0.2-0.3,0.3-0.7,0.6-1c0.3-0.4,0.6-0.8,0.9-1.2c2.6-3.2,6.4-5.3,10.8-5.3c4.4,0,8.3,2.1,10.8,5.3c0.3,0.4,0.6,0.8,0.9,1.2
		c0.2,0.3,0.4,0.7,0.6,1c0.2,0.4,0.4,0.8,0.6,1.2c0.2,0.5,0.3,0.9,0.4,1.4c0.1,0.4,0.2,0.7,0.3,1.1c0.2,0.9,0.3,1.8,0.3,2.7
		c0,7.7-6.2,13.9-13.9,13.9c-7.7,0-13.9-6.2-13.9-13.9C43.1,56.1,43.2,55.2,43.4,54.3z M82.5,47.7H73c-3.2-5.5-9.1-9.3-16-9.3
		s-12.8,3.8-16,9.3h-9.5v-9.6c0-3.7,3-6.7,6.7-6.7h37.7c3.7,0,6.7,3,6.7,6.7V47.7z"/>
</svg>
