<svg version="1.2" xmlns="http://www.w3.org/2000/svg" viewBox="0 0 58 44">
	<path fill="#AEB3B4" d="M2.5,10.8L25.9,25c1.9,1.2,4.2,1.2,6.1,0l23.5-14.2C56.8,10,57.6,9,58,7.9C58,3.6,54.4,0,50,0H8
		C3.6,0,0,3.6,0,7.9C0.4,9,1.2,10,2.5,10.8z"/>
	<path fill="#AEB3B4" d="M35.5,29.8c-2,1.2-4.3,1.8-6.5,1.8c-2.3,0-4.5-0.6-6.5-1.8l-3.9-2.4L2.9,42.1C4.3,43.3,6,44,8,44h42
		c2,0,3.7-0.7,5.1-1.9L39.4,27.4L35.5,29.8z"/>
	<path fill="#AEB3B4" d="M0,16.1V36c0,0.2,0,0.4,0,0.6l13.2-12.5L0,16.1z"/>
	<path fill="#AEB3B4" d="M44.8,24.1L58,36.6c0-0.2,0-0.4,0-0.6V16.1L44.8,24.1z"/>
</svg>
