<svg version="1.1" xmlns="http://www.w3.org/2000/svg" viewBox="0 0 114 114">
	<path fill="#D69719" d="M57,114C25.6,114,0,88.4,0,57C0,25.6,25.6,0,57,0c31.4,0,57,25.6,57,57C114,88.4,88.4,114,57,114z M57,3.1
		C27.3,3.1,3.1,27.3,3.1,57s24.2,53.9,53.9,53.9s53.9-24.2,53.9-53.9S86.7,3.1,57,3.1z"/>
	<path fill="#D69719" d="M57,22.3c-9.9,0-17.9,8-17.9,17.9c0,9.9,8,17.9,17.9,17.9c9.9,0,17.9-8,17.9-17.9C74.9,30.3,66.9,22.3,57,22.3
		z M57,32.8c4.1,0,7.4,3.3,7.4,7.4c0,4.1-3.3,7.4-7.4,7.4c-4.1,0-7.4-3.3-7.4-7.4C49.6,36.1,52.9,32.8,57,32.8z M42.2,58.7
		c-1.8,0-3.5,0.8-4.5,2.5c-1.5,2.5-0.8,5.7,1.6,7.2c3.2,2,6.8,3.5,10.4,4.3l-10,10c-2.1,2.1-2.1,5.4,0,7.4c1,1,2.4,1.5,3.7,1.5
		c1.3,0,2.7-0.5,3.7-1.5l9.8-9.9l9.9,9.9c2.1,2.1,5.4,2.1,7.4,0c2.1-2.1,2.1-5.4,0-7.4l-10-10c3.7-0.8,7.2-2.3,10.4-4.3
		c2.5-1.5,3.2-4.8,1.7-7.2c-1.5-2.5-4.8-3.2-7.2-1.7c-7.3,4.6-16.8,4.6-24.1,0C44.1,59,43.1,58.7,42.2,58.7L42.2,58.7z"/>
</svg>
