<svg version="1.1" xmlns="http://www.w3.org/2000/svg" viewBox="0 0 50 50">
	<path fill="#2793B2" d="M41.1,50C30.3,50,19.7,45.6,12,38C4.3,30.2-0.1,19.4,0,8.4c0-0.2,0.4-2.3,1.3-3.2l3.4-3.4
		c1.6-1.6,4.4-2.2,6.5-1.5l0.7,0.2c2,0.7,4.1,2.8,4.6,4.9l1.7,6.2c0.6,2.1-0.2,5-1.7,6.5L14.8,20C17,27.3,22.7,33,30,35.2l1.8-1.8
		c1.5-1.5,4.4-2.3,6.5-1.7l6.3,1.7c2.1,0.6,4.2,2.6,4.9,4.6l0.2,0.7c0.7,2.1,0,4.9-1.5,6.5l-3.4,3.4c-0.9,0.9-3,1.3-3.3,1.3
		C41.4,50,41.2,50,41.1,50z M2.4,8.6C2.3,18.9,6.4,29,13.7,36.3c7.2,7.2,17.2,11.3,27.4,11.3c0.1,0,0.2,0,0.2,0
		c0.5-0.1,1.5-0.4,1.7-0.6l3.4-3.4c0.9-0.9,1.4-2.8,1-4.1l0,0l-0.2-0.7c-0.4-1.3-2-2.7-3.3-3.1L37.7,34c-1.3-0.4-3.3,0.2-4.2,1.1
		l-2.3,2.3c-0.3,0.3-0.7,0.4-1.2,0.3c-8.6-2.3-15.4-9.1-17.7-17.7c-0.1-0.4,0-0.9,0.3-1.2l2.3-2.3c0.9-0.9,1.4-2.9,1.1-4.2
		l-1.7-6.2c-0.4-1.3-1.8-2.8-3.1-3.3l-0.7-0.2c-1.2-0.4-3.1,0-4.1,1L3,6.9C2.8,7.1,2.5,8,2.4,8.6z M41.5,47.6
		C41.4,47.6,41.4,47.6,41.5,47.6C41.4,47.6,41.5,47.6,41.5,47.6C41.5,47.6,41.5,47.6,41.5,47.6z"/>

	<path fill="#2793B2" d="M38,26.2c-0.7,0-1.2-0.5-1.2-1.2c0-6.4-5.2-11.7-11.6-11.9c-0.7,0-1.2-0.6-1.2-1.2c0-0.6,0.5-1.2,1.2-1.2
		c0,0,0,0,0,0c3.7,0.1,7.2,1.6,9.8,4.3c2.6,2.7,4.1,6.2,4.1,10C39.2,25.7,38.7,26.2,38,26.2z"/>
	<path fill="#2793B2" d="M38,26.2c-0.7,0-1.2-0.5-1.2-1.2c0-6.4-5.2-11.7-11.6-11.9c-0.7,0-1.2-0.6-1.2-1.2c0-0.6,0.5-1.2,1.2-1.2
		c0,0,0,0,0,0c3.7,0.1,7.2,1.6,9.8,4.3c2.6,2.7,4.1,6.2,4.1,10C39.2,25.7,38.7,26.2,38,26.2z"/>
	<path fill="#2793B2" d="M48.8,26.2c-0.7,0-1.2-0.5-1.2-1.2C47.6,12.5,37.5,2.4,25,2.4c-0.5,0-1,0-1.5,0.1c-0.7,0-1.2-0.4-1.3-1.1
		c0-0.7,0.4-1.2,1.1-1.3C23.8,0,24.4,0,25,0c13.8,0,25,11.2,25,25C50,25.7,49.5,26.2,48.8,26.2z"/>
</svg>
