<svg version="1.1" xmlns="http://www.w3.org/2000/svg" viewBox="0 0 58 58">
	<path d="M55.6,33.2c0.2-1.4,0.3-2.8,0.3-4.2c0-14.9-12-26.9-26.9-26.9c-1.4,0-2.8,0.1-4.2,0.3
		C22.3,0.9,19.4,0,16.3,0C7.3,0,0,7.3,0,16.3c0,3.1,0.9,6.1,2.4,8.5c-0.2,1.4-0.3,2.8-0.3,4.2c0,14.9,12,26.9,26.9,26.9
		c1.4,0,2.8-0.1,4.2-0.3c2.5,1.5,5.4,2.4,8.5,2.4c9,0,16.3-7.3,16.3-16.3C58,38.6,57.1,35.7,55.6,33.2z M41.8,41.2
		c-1.1,1.6-2.8,2.9-5,3.8C34.6,46,32,46.5,29,46.5c-3.6,0-6.5-0.6-8.9-1.9c-1.7-0.9-3-2.1-4-3.6c-1-1.5-1.6-3-1.6-4.5
		c0-0.9,0.3-1.6,1-2.2c0.6-0.6,1.5-0.9,2.4-0.9c0.8,0,1.5,0.2,2,0.7c0.6,0.5,1,1.2,1.4,2.1c0.5,1.1,1,1.9,1.5,2.6
		c0.5,0.7,1.3,1.3,2.2,1.7c0.9,0.5,2.2,0.7,3.8,0.7c2.2,0,3.9-0.5,5.2-1.4c1.3-0.9,2-2.1,2-3.4c0-1.1-0.3-1.9-1.1-2.6
		c-0.7-0.7-1.6-1.2-2.8-1.6c-1.2-0.4-2.7-0.8-4.6-1.2c-2.6-0.6-4.8-1.2-6.5-2c-1.8-0.8-3.2-1.8-4.2-3.1c-1-1.3-1.6-3-1.6-4.9
		c0-1.9,0.5-3.5,1.7-5c1.1-1.5,2.7-2.6,4.8-3.3c2.1-0.8,4.5-1.2,7.3-1.2c2.2,0,4.2,0.3,5.8,0.8c1.6,0.5,3,1.2,4.1,2.1
		c1.1,0.9,1.9,1.8,2.4,2.7c0.5,0.9,0.8,1.9,0.8,2.8c0,0.8-0.3,1.6-1,2.3c-0.6,0.7-1.4,1-2.4,1c-0.9,0-1.5-0.2-2-0.6
		c-0.5-0.4-0.9-1-1.4-1.9c-0.7-1.3-1.4-2.2-2.3-2.9c-0.9-0.7-2.3-1-4.4-1c-1.9,0-3.4,0.4-4.5,1.1c-1.1,0.8-1.7,1.6-1.7,2.7
		c0,0.6,0.2,1.2,0.6,1.7c0.4,0.5,0.9,0.9,1.6,1.2c0.7,0.3,1.4,0.6,2.1,0.8c0.7,0.2,1.9,0.5,3.5,0.9c2,0.4,3.9,0.9,5.5,1.5
		c1.7,0.5,3.1,1.2,4.2,2c1.2,0.8,2.1,1.8,2.8,2.9c0.7,1.2,1,2.6,1,4.3C43.5,37.8,42.9,39.6,41.8,41.2z"/>
</svg>
