<svg version="1.1" xmlns="http://www.w3.org/2000/svg" viewBox="0 0 114 114">
	<path fill="#3C6884" d="M57,114C25.6,114,0,88.4,0,57C0,25.6,25.6,0,57,0c31.4,0,57,25.6,57,57C114,88.4,88.4,114,57,114z M57,3.1
		C27.3,3.1,3.1,27.3,3.1,57s24.2,53.9,53.9,53.9s53.9-24.2,53.9-53.9S86.7,3.1,57,3.1z"/>
	<path fill="#3C6884" d="M87.3,57.4c1.1-1.5,2-2.6,2.7-3.5c4.8-6.3,6.8-10.4,6.2-12.1L96,41.4c-0.2-0.2-0.6-0.5-1.3-0.7
		c-0.7-0.2-1.6-0.2-2.6-0.1l-11.9,0.1c-0.3,0-0.6,0-0.8,0c-0.3,0-0.5,0.1-0.5,0.1c-0.1,0-0.2,0.1-0.2,0.1L78.4,41
		c-0.1,0.1-0.3,0.2-0.5,0.4c-0.2,0.2-0.3,0.4-0.4,0.7c-1.3,3.3-2.8,6.4-4.4,9.3c-1,1.7-2,3.2-2.8,4.4c-0.9,1.3-1.6,2.2-2.1,2.8
		c-0.6,0.6-1.1,1.1-1.6,1.4c-0.5,0.4-0.8,0.5-1.1,0.5c-0.2-0.1-0.5-0.1-0.7-0.2c-0.4-0.2-0.7-0.6-0.9-1c-0.2-0.4-0.4-1-0.5-1.6
		c-0.1-0.6-0.1-1.2-0.1-1.7c0-0.5,0-1.1,0-2c0-0.9,0-1.4,0-1.7c0-1,0-2.2,0.1-3.4c0-1.2,0.1-2.2,0.1-2.9c0-0.7,0-1.5,0-2.3
		c0-0.8,0-1.4-0.1-1.9c-0.1-0.5-0.2-0.9-0.4-1.3c-0.2-0.4-0.5-0.8-0.8-1c-0.4-0.2-0.8-0.4-1.4-0.6c-1.5-0.3-3.3-0.5-5.6-0.5
		c-5.1-0.1-8.4,0.3-9.9,1c-0.6,0.3-1.1,0.7-1.6,1.2c-0.5,0.6-0.6,0.9-0.2,1c1.7,0.2,2.8,0.8,3.5,1.8l0.2,0.5
		c0.2,0.4,0.4,1,0.6,1.9c0.2,0.9,0.3,1.9,0.4,3c0.1,2,0.1,3.7,0,5.2s-0.3,2.5-0.4,3.3c-0.1,0.8-0.3,1.4-0.6,1.9
		c-0.2,0.5-0.4,0.8-0.5,0.9c-0.1,0.1-0.2,0.2-0.2,0.2c-0.4,0.1-0.7,0.2-1.1,0.2c-0.4,0-0.9-0.2-1.4-0.6c-0.6-0.4-1.1-0.9-1.7-1.6
		c-0.6-0.7-1.3-1.6-2-2.8c-0.7-1.2-1.5-2.6-2.3-4.3l-0.7-1.2c-0.4-0.8-1-1.9-1.7-3.4c-0.7-1.5-1.3-2.9-1.9-4.3
		c-0.2-0.6-0.6-1-1-1.3l-0.2-0.1c-0.1-0.1-0.4-0.2-0.7-0.3c-0.3-0.1-0.6-0.2-0.9-0.3l-11.3,0.1c-1.2,0-1.9,0.3-2.4,0.8l-0.2,0.2
		c-0.1,0.1-0.1,0.4-0.1,0.7c0,0.3,0.1,0.7,0.2,1.1c1.7,3.9,3.4,7.6,5.4,11.2c1.9,3.6,3.6,6.5,5.1,8.7c1.4,2.2,2.9,4.3,4.4,6.2
		c1.5,2,2.5,3.2,3,3.8c0.5,0.6,0.9,1,1.1,1.2l1,1c0.7,0.7,1.6,1.5,2.9,2.4s2.7,1.8,4.3,2.7c1.6,0.9,3.4,1.6,5.4,2.2s4.1,0.8,6,0.7
		h4.7c1-0.1,1.7-0.4,2.2-0.9l0.2-0.2c0.1-0.2,0.2-0.4,0.3-0.8c0.1-0.3,0.1-0.7,0.1-1.1c0-1.2,0.1-2.3,0.3-3.2
		c0.2-0.9,0.4-1.7,0.7-2.1c0.3-0.5,0.6-0.9,0.9-1.2c0.3-0.3,0.6-0.5,0.7-0.6c0.1-0.1,0.2-0.1,0.3-0.1c0.7-0.2,1.4,0,2.3,0.6
		c0.9,0.6,1.7,1.4,2.5,2.4c0.8,0.9,1.7,2,2.8,3.2c1.1,1.2,2.1,2.1,2.9,2.6l0.8,0.5c0.6,0.3,1.3,0.6,2.1,0.9
		c0.9,0.3,1.7,0.3,2.3,0.2l10.6-0.2c1,0,1.9-0.2,2.4-0.5c0.6-0.3,0.9-0.7,1-1.1c0.1-0.4,0.1-0.9,0-1.4c-0.1-0.5-0.2-0.9-0.3-1.1
		c-0.1-0.2-0.2-0.4-0.3-0.5c-1.4-2.5-4-5.5-7.9-9.1l-0.1-0.1l0,0l0,0h0c-1.8-1.7-2.9-2.8-3.3-3.4c-0.9-1.1-1-2.2-0.6-3.3
		C84,62,85.2,60.2,87.3,57.4z"/>
</svg>
