<svg version="1.1" xmlns="http://www.w3.org/2000/svg" viewBox="0 0 114 114">
	<path fill="#AD4A3C" d="M57,114C25.6,114,0,88.4,0,57C0,25.6,25.6,0,57,0c31.4,0,57,25.6,57,57C114,88.4,88.4,114,57,114z M57,3.1
		C27.3,3.1,3.1,27.3,3.1,57s24.2,53.9,53.9,53.9s53.9-24.2,53.9-53.9S86.7,3.1,57,3.1z"/>
	<path fill="#AD4A3C" d="M77.3,73.3h-3.9l0-2.3c0-1,0.8-1.8,1.8-1.8h0.2c1,0,1.8,0.8,1.8,1.8L77.3,73.3z M62.8,68.5
		c-1,0-1.8,0.7-1.8,1.5v10.9c0,0.8,0.8,1.5,1.8,1.5c1,0,1.8-0.7,1.8-1.5V70C64.6,69.2,63.8,68.5,62.8,68.5z M86.4,62.4v20.8
		c0,5-4.3,9.1-9.6,9.1H37.2c-5.3,0-9.6-4.1-9.6-9.1V62.4c0-5,4.3-9.1,9.6-9.1h39.6C82.1,53.3,86.4,57.4,86.4,62.4z M39.9,85.5
		l0-21.9l4.9,0v-3.2l-13.1,0v3.2l4.1,0v22H39.9z M54.6,66.8h-4.1v11.7c0,1.7,0.1,2.5,0,2.8c-0.3,0.9-1.8,1.9-2.4,0.1
		c-0.1-0.3,0-1.2,0-2.9l0-11.8H44l0,11.6c0,1.8,0,3.1,0,3.7c0.1,1.1,0.1,2.3,1.1,3c1.8,1.3,5.4-0.2,6.2-2.1l0,2.4l3.3,0L54.6,66.8
		L54.6,66.8z M67.6,80.2l0-9.7c0-3.7-2.8-5.9-6.6-2.9l0-7.2l-4.1,0l0,25l3.4,0l0.3-1.6C65,87.6,67.6,84.9,67.6,80.2z M80.4,78.9
		l-3.1,0c0,0.1,0,0.3,0,0.4v1.7c0,0.9-0.8,1.7-1.7,1.7h-0.6c-0.9,0-1.7-0.7-1.7-1.7v-0.2V79v-2.4h7v-2.6c0-1.9,0-3.9-0.2-5
		c-0.5-3.5-5.4-4-7.9-2.3C71.6,67.3,71,68,70.6,69c-0.3,1-0.5,2.4-0.5,4.1v5.8C70.1,88.6,81.8,87.2,80.4,78.9z M64.7,47.4
		c0.2,0.5,0.5,0.9,1,1.2c0.4,0.3,1,0.5,1.7,0.5c0.6,0,1.1-0.2,1.6-0.5c0.5-0.3,0.8-0.8,1.1-1.5L70,48.7h4.6V29.3H71v15.1
		c0,0.8-0.7,1.5-1.5,1.5c-0.8,0-1.5-0.7-1.5-1.5V29.3h-3.7v13.1c0,1.7,0,2.8,0.1,3.3C64.4,46.3,64.5,46.9,64.7,47.4z M50.9,36.4
		c0-1.9,0.2-3.3,0.5-4.4c0.3-1,0.9-1.9,1.7-2.5c0.8-0.6,1.8-1,3.1-1c1.1,0,2,0.2,2.7,0.6c0.8,0.4,1.3,0.9,1.7,1.6
		c0.4,0.7,0.7,1.3,0.8,2c0.2,0.7,0.2,1.8,0.2,3.2v4.9c0,1.8-0.1,3.1-0.2,4c-0.1,0.8-0.4,1.6-0.9,2.4c-0.5,0.7-1,1.3-1.8,1.6
		c-0.7,0.3-1.5,0.5-2.5,0.5c-1,0-1.9-0.1-2.6-0.4c-0.7-0.3-1.3-0.7-1.7-1.3c-0.4-0.6-0.7-1.3-0.9-2.2c-0.2-0.8-0.3-2.1-0.3-3.8
		L50.9,36.4L50.9,36.4z M54.5,44.1c0,1.1,0.8,2,1.8,2c1,0,1.8-0.9,1.8-2V33.8c0-1.1-0.8-2-1.8-2c-1,0-1.8,0.9-1.8,2V44.1z
		 M41.8,49.3h4.3l0-14.9l5.1-12.7h-4.7l-2.7,9.5l-2.7-9.5h-4.7l5.4,12.8L41.8,49.3z"/>
</svg>
