<svg version="1.1" xmlns="http://www.w3.org/2000/svg" viewBox="0 0 87 100">
	<path fill="#81BB27" d="M80.8,31.3c-3.4,0-6.2,2.8-6.2,6.2v25c0,3.4,2.8,6.2,6.2,6.2c3.4,0,6.2-2.8,6.2-6.2v-25
		C87,34.1,84.2,31.3,80.8,31.3z M6.2,31.3c-3.4,0-6.2,2.8-6.2,6.2v25c0,3.4,2.8,6.2,6.2,6.2s6.2-2.8,6.2-6.2v-25
		C12.4,34.1,9.6,31.3,6.2,31.3z M15.5,71.9c0,5.2,4.2,9.4,9.3,9.4H28v12.5c0,3.4,2.8,6.2,6.2,6.2s6.2-2.8,6.2-6.2V81.3h6.2v12.5
		c0,3.4,2.8,6.2,6.2,6.2s6.2-2.8,6.2-6.2V81.3h3.1c5.1,0,9.3-4.2,9.3-9.4V37.5H15.5V71.9z M55,8.7l3.9-7.6c0.2-0.4,0-0.9-0.3-1.1
		c-0.4-0.2-0.9,0-1,0.3l-4,7.7c-3.1-1.2-6.5-1.9-10.1-1.9c-3.6,0-7,0.7-10.1,1.9l-4-7.7c-0.2-0.4-0.7-0.5-1-0.3
		c-0.4,0.2-0.5,0.7-0.3,1.1L32,8.7c-8.8,4-15.2,12.5-16.3,22.5h55.6C70.2,21.2,63.8,12.7,55,8.7z M31.1,26.4c-2.5,0-4.5-2-4.5-4.5
		s2-4.5,4.5-4.5s4.5,2,4.5,4.5C35.6,24.4,33.6,26.4,31.1,26.4z M55.9,26.4c-2.5,0-4.5-2-4.5-4.5s2-4.5,4.5-4.5c2.5,0,4.5,2,4.5,4.5
		S58.4,26.4,55.9,26.4z"/>

</svg>
