<svg version="1.1" xmlns="http://www.w3.org/2000/svg" viewBox="0 0 39 39">
    <path fill="#fff" d="M19.9,4.7c-1.2-0.4-2.5-0.6-3.8-0.6c-3.1,0-6,1.2-8.2,3.3c-0.4,0.4-0.4,1,0,1.4C8,9,8.3,9.1,8.5,9.1
        C8.8,9.1,9,9,9.2,8.8c1.9-1.8,4.3-2.7,6.9-2.7c1.1,0,2.1,0.2,3.2,0.5c0.5,0.2,1.1-0.1,1.2-0.6C20.6,5.4,20.4,4.9,19.9,4.7z"/>
    <path fill="#fff" d="M38.7,37.3L30.4,29c-0.4-0.4-1-0.4-1.4,0c-0.4,0.4-0.4,1,0,1.4l8.3,8.3c0.2,0.2,0.4,0.3,0.7,0.3
        s0.5-0.1,0.7-0.3C39.1,38.3,39.1,37.7,38.7,37.3z"/>
    <path fill="#fff" d="M16.1,0C7.2,0,0,7.2,0,16.1s7.2,16.1,16.1,16.1S32.2,25,32.2,16.1S25,0,16.1,0z M16.1,30.2
        C8.3,30.2,2,23.9,2,16.1S8.3,2,16.1,2s14.1,6.3,14.1,14.1S23.9,30.2,16.1,30.2z"/>
</svg>
