<?xml version="1.0" encoding="utf-8"?>
<!-- Generator: Adobe Illustrator 19.2.0, SVG Export Plug-In . SVG Version: 6.00 Build 0)  -->
<svg version="1.1" id="Layer_1" xmlns="http://www.w3.org/2000/svg" xmlns:xlink="http://www.w3.org/1999/xlink" x="0px" y="0px"
	 viewBox="0 0 40 107" style="enable-background:new 0 0 40 107;" xml:space="preserve">
<style type="text/css">
	.st0{fill:#6E7B7D;}
	.st1{fill:#F9CA0B;}
</style>
<g>
	<path class="st0" d="M10.8,44.7c-2-0.7-3.6-1.7-4.8-2.9c0,0,0,0,0,0c-0.6-0.6-1.6-0.6-2.3,0C3,42.4,3,43.4,3.6,44c0,0,0,0,0,0
		c1.6,1.6,3.5,2.8,6,3.7c0.2,0.1,0.4,0.1,0.6,0.1c0.7,0,1.3-0.4,1.5-1C12,46,11.6,45,10.8,44.7z"/>
	<path class="st0" d="M3.4,37c-0.1-0.7-0.2-1.5-0.2-2.2c0-1.1,0.2-2.3,0.5-3.3c0.3-0.8-0.2-1.7-1-2c-0.9-0.3-1.8,0.2-2,1
		C0.2,31.9,0,33.4,0,34.8c0,0.9,0.1,1.9,0.3,2.8c0.2,0.8,0.8,1.3,1.6,1.3c0.1,0,0.2,0,0.3,0C3.1,38.7,3.6,37.9,3.4,37z"/>
	<path class="st0" d="M39.7,57.5c-0.2-0.9-1.1-1.4-1.9-1.2c-0.9,0.2-1.4,1.1-1.2,1.9c0.1,0.5,0.2,1,0.2,1.5c0,0.3,0,0.6-0.1,0.8
		c-0.1,0.9-0.4,1.8-1,2.6c-0.5,0.8-0.2,1.7,0.6,2.2c0.3,0.2,0.5,0.2,0.8,0.2c0.5,0,1.1-0.3,1.4-0.8c0.7-1.2,1.2-2.5,1.4-3.8
		c0.1-0.4,0.1-0.9,0.1-1.3C40,59,39.9,58.2,39.7,57.5z"/>
	<path class="st0" d="M19.5,8C19.5,8,19.5,8,19.5,8c0.9,0,1.6-0.7,1.6-1.6l0-6.4l-3.2,0l0,6.4C17.9,7.3,18.6,8,19.5,8z"/>
	<path class="st0" d="M10.4,21.1c-0.4,0.3-0.9,0.5-1.3,0.8c-1.5,0.8-3,1.7-4.3,2.8c-0.7,0.6-0.8,1.6-0.2,2.2
		c0.3,0.4,0.8,0.6,1.2,0.6c0.4,0,0.7-0.1,1-0.4c1.1-0.9,2.5-1.7,3.8-2.5c0.5-0.3,0.9-0.5,1.4-0.8c0.8-0.4,1-1.4,0.6-2.2
		C12.1,20.9,11.1,20.6,10.4,21.1z"/>
	<path class="st0" d="M22.5,77c-0.9,2-1.5,4.2-1.7,6.7c-0.1,0.9,0.6,1.6,1.5,1.7c0,0,0.1,0,0.1,0c0.8,0,1.5-0.6,1.6-1.5
		c0.2-2.2,0.6-4,1.4-5.6c0.4-0.8,0-1.7-0.8-2.1C23.8,75.8,22.8,76.2,22.5,77z"/>
	<path class="st0" d="M35.9,51.4c-1.2-1.1-2.6-2-4.1-2.6c-0.7-0.3-1.3-0.5-2.1-0.8c-0.8-0.3-1.8,0.2-2,1s0.2,1.7,1,2
		c0.6,0.2,1.2,0.4,1.7,0.6c1.2,0.5,2.3,1.2,3.3,2.1c0.3,0.3,0.7,0.4,1.1,0.4c0.4,0,0.9-0.2,1.2-0.5C36.6,53,36.5,51.9,35.9,51.4z"/>
	<path class="st0" d="M16.1,20c0.5,0,0.9-0.2,1.3-0.6c1.4-1.8,2.5-3.9,3.2-6.2c0.2-0.8-0.2-1.7-1.1-2c-0.9-0.2-1.7,0.2-2,1.1
		c-0.5,1.9-1.5,3.6-2.6,5.1c-0.6,0.7-0.4,1.7,0.3,2.2C15.4,19.8,15.7,20,16.1,20z"/>
	<path class="st0" d="M31.7,67.3c-0.5,0.4-1,0.8-1.6,1.2c-1.2,0.9-2.4,1.9-3.5,2.9C26,72,26,73,26.6,73.7c0.3,0.3,0.7,0.5,1.2,0.5
		c0.4,0,0.8-0.1,1.1-0.4c1-0.9,2.2-1.8,3.3-2.7c0.5-0.4,1.1-0.8,1.6-1.3c0.7-0.6,0.8-1.6,0.2-2.2C33.4,66.9,32.4,66.8,31.7,67.3z"/>
	<path class="st0" d="M16.3,49.2c0.3,0,0.7,0.1,1,0.1c0.9,0.1,1.8,0.2,2.7,0.3c0.9,0.1,1.8,0.2,2.7,0.3c0.1,0,0.1,0,0.2,0
		c0.8,0,1.5-0.6,1.6-1.4c0.1-0.9-0.5-1.7-1.4-1.8c-0.9-0.1-1.9-0.2-2.8-0.3c-0.9-0.1-1.7-0.2-2.6-0.2c-0.3,0-0.7-0.1-1-0.1
		c-0.9-0.1-1.7,0.5-1.8,1.4C14.8,48.3,15.4,49.1,16.3,49.2z"/>
	<path class="st1" d="M28.2,94.4c-0.1,0-0.2-0.1-0.3-0.1l0,0L24,96.4l0-6.2c0-0.9-0.7-1.6-1.6-1.6c-0.9,0-1.6,0.7-1.6,1.6l0,6.2
		l-3.9-2.1l0,0c-0.1,0-0.3,0-0.4,0.1c-1,0.3-1.4,1.4-1,2.2l4.7,9c0.4,0.8,1.3,1.4,2.2,1.4s1.8-0.5,2.2-1.4l4.7-9
		C29.6,95.7,29.2,94.7,28.2,94.4z"/>
</g>
</svg>
