<svg version="1.1" xmlns="http://www.w3.org/2000/svg" viewBox="0 0 135 192">
	<path fill="#FACB10" d="M120.2,192H62.5c-2,0-3.5-1.6-3.5-3.5c0-1.9,1.6-3.5,3.5-3.5h57.7c2,0,3.5,1.6,3.5,3.5
		C123.7,190.4,122.2,192,120.2,192z"/>
	<path fill="#6D7B7C" d="M134.2,166.1l-28-53.7c13.7-11.5,21.9-28.6,21.9-46.5c0-17.4-7.5-34-20.6-45.4l-2.6-2.3L67.1,59.5L49.4,43.2
		c0.6-1.3,0.9-2.8,0.9-4.3c0-6.1-5-11-11-11s-11,4.9-11,11s5,11,11,11c2,0,3.8-0.6,5.4-1.5l17.6,16.3l-39,42.5l2.5,2.4
		c11.2,10.8,26.1,16.8,41.8,16.8c0.8,0,1.7-0.1,2.5-0.1l-20.8,39.8c-1.1,2.1-1,4.5,0.2,6.5c1.2,2,3.3,3.2,5.7,3.2h73.1
		c2.3,0,4.5-1.2,5.7-3.2C135.3,170.6,135.3,168.1,134.2,166.1z M39.3,42.8c-2.2,0-4-1.8-4-4s1.8-4,4-4c2.2,0,4,1.8,4,4
		S41.5,42.8,39.3,42.8z M33.3,106.8l72.1-78.7c10,10,15.7,23.6,15.7,37.8c0,16.7-8,32.7-21.4,42.8c-4.9,3.7-10.5,6.5-16.5,8.3
		c-0.4,0.1-0.7,0.3-1.1,0.4c-0.3,0.1-0.6,0.1-0.9,0.2c-1.8,0.5-3.6,0.9-5.5,1.2l0,0c-2.8,0.4-5.4,0.6-8.1,0.6
		C54.9,119.4,42.9,114.9,33.3,106.8z M56,168.7l22.6-43.3c1.6-0.3,3.1-0.7,4.6-1.1c0.3-0.1,0.7-0.1,1-0.2c2.2-0.6,4.3-1.4,6.4-2.2
		c0.6-0.2,1.2-0.5,1.8-0.8c1.5-0.7,3-1.4,4.4-2.2c0.7-0.4,1.4-0.8,2-1.2c0.6-0.3,1.2-0.6,1.7-1l27.1,52H56z M128.3,168.7
		L128.3,168.7L128.3,168.7L128.3,168.7z"/>
	<path fill="#FACB10" d="M16.5,38.7c-0.2,0-0.4,0-0.6,0c-1.9-0.3-3.2-2.1-2.9-4c1.7-10.8,9.7-19.4,20.4-21.8c1.9-0.4,3.8,0.8,4.2,2.7
		s-0.8,3.8-2.7,4.2c-7.8,1.8-13.7,8.1-15,16C19.7,37.5,18.2,38.7,16.5,38.7z"/>
	<path fill="#FACB10" d="M3.5,36.7c-0.2,0-0.4,0-0.6,0c-1.9-0.3-3.2-2.1-2.9-4c2.5-15.9,14.8-29,30.5-32.5c1.9-0.4,3.8,0.8,4.2,2.7
		C35.2,4.7,34,6.5,32.1,7C19.2,9.9,9.1,20.6,7,33.7C6.7,35.4,5.2,36.7,3.5,36.7z"/>
</svg>
