<svg version="1.1" xmlns="http://www.w3.org/2000/svg" viewBox="0 0 126 132">
	<path fill="#FAD44A" d="M40,75.5c12.6-6.7,27-8.6,41.1-7.6c8.9,0.6,17.6,3,26.1,5.7c-2.7-2.2-5.3-4.8-7.2-7.8
		c-0.7-1.1-1.2-2.7,0.4-3.4c1.2-0.5,2.1,0.4,2.7,1.3c2.1,2.8,4.3,5.5,7.2,7.5c2.8,2.1,6,3.6,9,5.3c1.6,0.9,3.2,1.7,4.7,2.7
		c1,0.6,2.2,1.4,1.9,2.8c-0.3,1.2-1.4,1.5-2.4,1.4c-1.7-0.2-3.5-0.6-5.2-1c-3.6-0.7-7.1-2-10.7-2.5c-3.2-0.4-6.6-0.1-9.8,0.6
		c-1.3,0.3-3.3,1.1-4-0.6c-0.5-1.1,0.2-2.2,1.3-2.6c3.3-1.4,7.5-1.3,11-1.2c-8.4-2.4-16.9-4.6-25.7-5.1c-8.1-0.4-16.3,0.1-24.2,2.1
		c-14.3,3.6-27,12.7-35.7,24.7c-1.4,1.9-2.7,4-3.9,6c-1,1.8-1.7,4-2.9,5.6c-0.9,1.2-2.8,1.3-3.6-0.2c-1.1-2,1.7-5.8,2.6-7.5
		c1.4-2.4,2.9-4.7,4.5-7c3.3-4.4,7.2-8.5,11.5-11.9C32.3,80.1,36.1,77.6,40,75.5z"/>
	<path fill="#FAD44A" d="M7.1,118.1H6.7c-3.7,0-6.7,3-6.7,6.7l0,0.4c0,3.7,3,6.7,6.7,6.7h0.3c3.7,0,6.7-3,6.7-6.7v-0.4
		C13.8,121.1,10.8,118.1,7.1,118.1z"/>
	<path fill="#6E7C7E" d="M30.8,7.8c1.3,3.4,3.1,6.7,4.1,10.2c0.9,3.1,1.2,6.5,1,9.8c-0.1,1.3-0.5,3.4,1.2,3.9c1.2,0.3,2.1-0.6,2.4-1.7
		c0.8-3.5,0.1-7.7-0.6-11.1c3.7,8,7.2,16.1,9,24.7c1.3,6,2.1,12.2,2,18.4c1.1-0.3,2.2-0.6,3.3-0.9c-0.1-6.3-1-12.5-2.4-18.6
		c-2-8.8-5.7-17-9.7-25.1c2.6,2.4,5.6,4.5,8.8,5.9c1.2,0.5,2.8,0.7,3.2-0.9c0.3-1.2-0.8-2-1.7-2.5c-3.1-1.6-6-3.4-8.5-5.9
		c-2.5-2.5-4.5-5.4-6.6-8.1c-1.1-1.4-2.2-2.9-3.3-4.2c-0.8-0.9-1.7-2-3-1.4c-1.1,0.5-1.2,1.6-1,2.6C29.4,4.5,30.2,6.2,30.8,7.8z"/>
	<path fill="#6E7C7E" d="M46.6,82.4c-3.2,9.3-8.6,17.9-15.5,24.9c-1.7,1.7-3.5,3.3-5.3,4.8c-1.6,1.3-3.7,2.3-5.1,3.8
		c-1,1.1-0.9,3,0.7,3.5c2.1,0.8,5.4-2.6,6.9-3.8c2.2-1.7,4.2-3.6,6.1-5.6c3.8-4,7.2-8.4,9.9-13.3c2.2-3.9,4-8.1,5.5-12.4
		c0.4-1.3,0.8-2.6,1.2-4C49.5,81.1,48,81.7,46.6,82.4z"/>
</svg>
