<svg version="1.1" xmlns="http://www.w3.org/2000/svg" viewBox="0 0 53 50">
    <path fill="#DFE1E1" d="M52.1,22.5h-2.6V12.2C49.5,5.5,43.9,0,37,0C30,0,24.4,5.5,24.4,12.2v25.6c0,4.5-3.8,8.1-8.4,8.1
        c-4.6,0-8.4-3.6-8.4-8.1V27.2h2.6c0.5,0,0.9-0.4,0.9-0.9V13.9c0-0.5-0.4-0.9-0.9-0.9H9.4V8.4c0-0.5-0.4-0.9-0.9-0.9H2.7
        c-0.5,0-0.9,0.4-0.9,0.9V13H0.9C0.4,13,0,13.4,0,13.9v12.4c0,0.5,0.4,0.9,0.9,0.9h2.6v10.6C3.5,44.5,9.1,50,16,50
        c6.9,0,12.6-5.5,12.6-12.2V12.2c0-4.5,3.8-8.1,8.4-8.1c4.6,0,8.4,3.6,8.4,8.1v10.3h-2.6c-0.5,0-0.9,0.4-0.9,0.9v12.4
        c0,0.5,0.4,0.9,0.9,0.9h0.9v4.6c0,0.5,0.4,0.9,0.9,0.9h5.8c0.5,0,0.9-0.4,0.9-0.9v-4.6h0.9c0.5,0,0.9-0.4,0.9-0.9V23.4
    	C53,22.9,52.6,22.5,52.1,22.5z M3.6,9.2h4V13h-4V9.2z M49.4,40.5h-4v-3.8h4V40.5z"/>
</svg>
