<svg version="1.1" xmlns="http://www.w3.org/2000/svg" viewBox="0 0 70 54">
	<path fill="#DFE1E1" d="M25,47h-3.7V12.7C21.4,5.7,27,0,34,0s12.7,5.7,12.7,12.7v34.1H43V12.7c0-5-4-9-9-9s-9,4.1-9,9V47z"/>
	<path fill="#DFE1E1" d="M63.4,46.8h-3.7V30.6c0-5-4-9-9-9l0-3.7c7,0,12.7,5.7,12.7,12.7V46.8z"/>
	<path fill="#DFE1E1" d="M8.5,46.6H4.8v-16c0-7,5.7-12.7,12.7-12.7v3.7c-5,0-9,4.1-9,9V46.6z"/>
	<rect y="50.3" fill="#DFE1E1" width="70" height="3.7"/>
	<path fill="#DFE1E1" d="M39.3,47h-2.8V36.1h-5.1V47h-2.8v-12c0-0.9,0.7-1.6,1.6-1.6h7.5c0.9,0,1.6,0.7,1.6,1.6V47z"/>
	<path fill="#DFE1E1" d="M30.5,11.4L30.5,11.4c-1.1,0-2,0.9-2,2v3.6c0,1.1,0.9,2,2,2h0c1.1,0,2-0.9,2-2v-3.6
		C32.6,12.3,31.7,11.4,30.5,11.4z"/>
	<path fill="#DFE1E1" d="M37.3,11.4L37.3,11.4c-1.1,0-2,0.9-2,2v3.6c0,1.1,0.9,2,2,2h0c1.1,0,2-0.9,2-2v-3.6
		C39.3,12.3,38.4,11.4,37.3,11.4z"/>
	<path fill="#DFE1E1" d="M52.8,28.3L52.8,28.3c-1.1,0-2,0.9-2,2V34c0,1.1,0.9,2,2,2h0c1.1,0,2-0.9,2-2v-3.6
		C54.8,29.2,53.9,28.3,52.8,28.3z"/>
	<path fill="#DFE1E1" d="M15.5,28.3L15.5,28.3c-1.1,0-2,0.9-2,2V34c0,1.1,0.9,2,2,2h0c1.1,0,2-0.9,2-2v-3.6
		C17.5,29.2,16.6,28.3,15.5,28.3z"/>
	<path fill="#DFE1E1" d="M30.5,20.6L30.5,20.6c-1.1,0-2,0.9-2,2v3.6c0,1.1,0.9,2,2,2h0c1.1,0,2-0.9,2-2v-3.6
		C32.6,21.5,31.7,20.6,30.5,20.6z"/>
	<path fill="#DFE1E1" d="M37.3,20.6L37.3,20.6c-1.1,0-2,0.9-2,2v3.6c0,1.1,0.9,2,2,2h0c1.1,0,2-0.9,2-2v-3.6
		C39.3,21.5,38.4,20.6,37.3,20.6z"/>
</svg>
