<svg version="1.1" xmlns="http://www.w3.org/2000/svg" viewBox="0 0 93 93">
	<path fill="#CACDCF" d="M66.1,26.9c-0.4-0.4-0.9-0.4-1.3,0L46.5,45.2L28.2,26.9c-0.4-0.4-0.9-0.4-1.3,0c-0.4,0.4-0.4,0.9,0,1.3
		l18.3,18.3L26.9,64.8c-0.4,0.4-0.4,0.9,0,1.3c0.2,0.2,0.4,0.3,0.7,0.3c0.2,0,0.5-0.1,0.7-0.3l18.3-18.3l18.3,18.3
		c0.2,0.2,0.4,0.3,0.7,0.3c0.2,0,0.5-0.1,0.7-0.3c0.4-0.4,0.4-0.9,0-1.3L47.8,46.5l18.3-18.3C66.4,27.9,66.4,27.3,66.1,26.9z"/>
	<path fill="#CACDCF" d="M46.5,0C20.9,0,0,20.9,0,46.5S20.9,93,46.5,93S93,72.1,93,46.5S72.1,0,46.5,0z M46.5,91.2
		c-24.6,0-44.7-20-44.7-44.7c0-24.6,20-44.7,44.7-44.7s44.7,20,44.7,44.7C91.2,71.1,71.1,91.2,46.5,91.2z"/>
</svg>
