<svg version="1.1" xmlns="http://www.w3.org/2000/svg" viewBox="0 0 40 40">
	<path fill="#87999e" d="M36.3,8.5c-0.3-0.4-0.6-0.8-1-1.3C31.7,2.8,26.2,0,20,0c0,0,0,0,0,0c0,0,0,0,0,0c0,0,0,0-0.1,0
		C13.8,0,8.3,2.8,4.6,7.2C4.3,7.6,4,8,3.7,8.5C1.4,11.7,0,15.7,0,20c0,4.3,1.4,8.3,3.7,11.5c0.3,0.4,0.6,0.8,1,1.3
		c3.6,4.4,9.1,7.2,15.2,7.2c0,0,0,0,0.1,0c0,0,0,0,0,0c0,0,0,0,0,0c6.2,0,11.7-2.8,15.4-7.2c0.3-0.4,0.7-0.8,1-1.3
		C38.6,28.3,40,24.3,40,20C40,15.7,38.6,11.7,36.3,8.5z M14.2,2.6c-1.8,1.8-3.4,4.4-4.4,7.5C8.3,9.6,7.1,8.9,6,8.2
		C8.1,5.6,10.9,3.7,14.2,2.6z M5,9.5c1.2,0.8,2.7,1.6,4.3,2.2c-0.7,2.5-1.1,5.3-1.1,8.2H1.6C1.7,16,2.9,12.4,5,9.5z M1.7,21.5h6.5
		c0.1,2.5,0.5,4.8,1.1,6.9c-1.6,0.6-3,1.3-4.3,2.2C3.2,27.9,2,24.8,1.7,21.5z M6,31.8c1.1-0.7,2.4-1.3,3.8-1.9
		c1.1,3.1,2.6,5.7,4.4,7.5C10.9,36.3,8.1,34.3,6,31.8z M19.2,38.3c-3.4-0.5-6.3-3.9-7.9-8.9c2.4-0.7,5.1-1.1,7.9-1.2V38.3z
		 M19.2,26.6c-3,0.1-5.9,0.5-8.4,1.3c-0.5-2-0.8-4.1-0.9-6.4h9.3V26.6z M19.2,19.8H9.8c0-2.8,0.4-5.4,1-7.7c2.5,0.8,5.4,1.2,8.4,1.3
		L19.2,19.8L19.2,19.8z M19.2,11.8c-2.9-0.1-5.5-0.5-7.9-1.2c1.6-5,4.6-8.4,7.9-8.9V11.8z M38.4,19.8h-6.6c0-2.9-0.4-5.7-1.1-8.2
		c1.6-0.6,3.1-1.3,4.4-2.2C37.1,12.4,38.3,16,38.4,19.8z M34,8.2c-1.1,0.7-2.4,1.4-3.9,1.9c-1.1-3.2-2.6-5.8-4.5-7.6
		C29,3.6,31.9,5.6,34,8.2z M20.8,1.7c3.3,0.5,6.2,4,7.8,8.9c-2.4,0.7-5,1.1-7.8,1.2V1.7z M20.8,13.4c3-0.1,5.8-0.5,8.3-1.3
		c0.6,2.3,1,4.9,1,7.7h-9.3V13.4z M20.8,21.5h9.2c-0.1,2.3-0.4,4.4-0.9,6.4c-2.5-0.8-5.3-1.2-8.3-1.3L20.8,21.5L20.8,21.5z
		 M20.8,38.3V28.2c2.8,0.1,5.5,0.5,7.8,1.2C27,34.3,24.2,37.8,20.8,38.3z M25.7,37.4c1.9-1.8,3.4-4.4,4.5-7.6
		c1.4,0.5,2.7,1.2,3.9,1.9C31.9,34.4,29,36.4,25.7,37.4z M35,30.5c-1.3-0.8-2.7-1.6-4.4-2.2c0.6-2.1,0.9-4.4,1.1-6.9h6.6
		C38,24.8,36.8,27.9,35,30.5z"/>
</svg>
