<svg version="1.1" xmlns="http://www.w3.org/2000/svg" viewBox="0 0 258 82">
	<polygon fill="#fff" points="127.8,62.8 131.1,62.8 131.1,70.7 132,70.7 132,62.8 135.2,62.8 135.2,62.1 127.8,62.1 	"/>
	<path fill="#fff" d="M140.3,61.9c-1.1,0-2,0.4-2.8,1.2c-0.8,0.8-1.2,1.9-1.2,3.3c0,1.4,0.4,2.5,1.2,3.3c0.8,0.8,1.8,1.2,3,1.2
		c0.9,0,1.9-0.3,2.9-0.8l-0.3-0.6c-0.8,0.5-1.6,0.8-2.5,0.8c-1,0-1.8-0.3-2.5-1c-0.6-0.7-1-1.6-1-2.7h6.6c0-0.1,0-0.4,0-0.6
		c0-1.2-0.3-2.2-0.9-2.9C142.3,62.2,141.4,61.9,140.3,61.9z M137.2,65.9c0.1-1,0.4-1.8,1-2.4c0.6-0.6,1.3-0.9,2.1-0.9
		c0.8,0,1.5,0.3,2,0.8c0.5,0.6,0.7,1.4,0.7,2.4H137.2z"/>
	<path fill="#fff" d="M147.3,63.9c-0.1,0.6-0.2,1.4-0.3,2.2c-0.1,0.8-0.2,1.4-0.2,1.8c-0.2,1.4-0.6,2.1-1.4,2.1
		c-0.1,0-0.2,0-0.4-0.1l-0.2,0.7c0.2,0.1,0.4,0.1,0.7,0.1c1.1,0,1.8-0.9,2-2.8c0.1-0.9,0.3-2.7,0.7-5.3h3.4v7.9h0.8v-8.5h-4.9
		C147.4,62.7,147.4,63.3,147.3,63.9z"/>
	<path fill="#fff" d="M159.2,61.9c-1.1,0-2,0.4-2.8,1.2c-0.8,0.8-1.2,1.9-1.2,3.3c0,1.4,0.4,2.5,1.2,3.3c0.8,0.8,1.8,1.2,3,1.2
		c0.9,0,1.9-0.3,2.9-0.8l-0.3-0.6c-0.8,0.5-1.6,0.8-2.5,0.8c-1,0-1.8-0.3-2.5-1c-0.6-0.7-1-1.6-1-2.7h6.6c0-0.1,0-0.4,0-0.6
		c0-1.2-0.3-2.2-0.9-2.9C161.1,62.2,160.3,61.9,159.2,61.9z M156,65.9c0.1-1,0.4-1.8,1-2.4c0.6-0.6,1.3-0.9,2.1-0.9
		c0.8,0,1.5,0.3,2,0.8c0.5,0.6,0.7,1.4,0.7,2.4H156z"/>
	<path fill="#fff" d="M169.9,64.1c0.2-0.5,0.5-0.9,0.7-1.1c0.2-0.2,0.5-0.3,0.7-0.3c0.1,0,0.2,0,0.3,0l0.2-0.8
		c-0.1,0-0.3-0.1-0.4-0.1c-0.4,0-0.8,0.1-1.1,0.4c-0.3,0.3-0.6,0.7-1,1.5l-1,2.1H166v-3.7h-0.8v8.5h0.8v-4.1h2.3l2.8,4.1h1l-3.1-4.5
		L169.9,64.1z"/>
	<path fill="#fff" d="M177.1,61.9c-1.2,0-2.3,0.4-3.4,1.1l0.4,0.6c1-0.7,2-1,2.9-1c1.5,0,2.2,0.9,2.2,2.7c-2.1,0.2-3.6,0.6-4.5,1.1
		c-0.9,0.5-1.4,1.2-1.4,2.2c0,0.8,0.2,1.4,0.7,1.8s1.1,0.6,1.9,0.6c1,0,2.1-0.4,3.2-1.3h0.1l0.1,1.1h0.7v-5.5c0-1-0.2-1.8-0.7-2.4
		C178.9,62.2,178.2,61.9,177.1,61.9z M179.2,68.8c-1.2,0.9-2.2,1.4-3.1,1.4c-0.6,0-1-0.1-1.4-0.4c-0.4-0.3-0.5-0.7-0.5-1.3
		c0-0.7,0.4-1.3,1.2-1.7c0.8-0.4,2.1-0.7,3.9-0.9V68.8z"/>
	<polygon fill="#fff" points="189.4,65.8 184.1,65.8 184.1,62.1 183.3,62.1 183.3,70.7 184.1,70.7 184.1,66.5 189.4,66.5 
		189.4,70.7 190.3,70.7 190.3,62.1 189.4,62.1 	"/>
	<path fill="#fff" d="M197,61.9c-1.2,0-2.3,0.4-3.4,1.1l0.4,0.6c1-0.7,2-1,2.9-1c1.5,0,2.2,0.9,2.2,2.7c-2.1,0.2-3.6,0.6-4.5,1.1
		c-0.9,0.5-1.4,1.2-1.4,2.2c0,0.8,0.2,1.4,0.7,1.8c0.5,0.4,1.1,0.6,1.9,0.6c1,0,2.1-0.4,3.2-1.3h0.1l0.1,1.1h0.7v-5.5
		c0-1-0.2-1.8-0.7-2.4C198.7,62.2,198,61.9,197,61.9z M199,68.8c-1.2,0.9-2.2,1.4-3.1,1.4c-0.6,0-1-0.1-1.4-0.4
		c-0.4-0.3-0.5-0.7-0.5-1.3c0-0.7,0.4-1.3,1.2-1.7c0.8-0.4,2.1-0.7,3.9-0.9V68.8z"/>
	<path fill="#fff" d="M204.1,63.9c-0.1,0.6-0.2,1.4-0.3,2.2c-0.1,0.8-0.2,1.4-0.2,1.8c-0.2,1.4-0.6,2.1-1.4,2.1
		c-0.1,0-0.2,0-0.4-0.1l-0.2,0.7c0.2,0.1,0.4,0.1,0.7,0.1c1.1,0,1.8-0.9,2-2.8c0.1-0.9,0.3-2.7,0.7-5.3h3.4v7.9h0.8v-8.5h-4.9
		C204.3,62.7,204.2,63.3,204.1,63.9z"/>
	<polygon fill="#fff" points="224.3,64.1 217.6,64.1 217.6,58.9 216.7,58.9 216.7,70.7 217.6,70.7 217.6,64.8 224.3,64.8 
		224.3,70.7 225.2,70.7 225.2,58.9 224.3,58.9 	"/>
	<path fill="#fff" d="M232,61.9c-1.2,0-2.3,0.4-3.4,1.1l0.4,0.6c1-0.7,2-1,2.9-1c1.5,0,2.2,0.9,2.2,2.7c-2.1,0.2-3.6,0.6-4.5,1.1
		c-0.9,0.5-1.4,1.2-1.4,2.2c0,0.8,0.2,1.4,0.7,1.8c0.5,0.4,1.1,0.6,1.9,0.6c1,0,2.1-0.4,3.2-1.3h0.1l0.1,1.1h0.7v-5.5
		c0-1-0.2-1.8-0.7-2.4C233.7,62.2,233,61.9,232,61.9z M234,68.8c-1.2,0.9-2.2,1.4-3.1,1.4c-0.6,0-1-0.1-1.4-0.4
		c-0.4-0.3-0.5-0.7-0.5-1.3c0-0.7,0.4-1.3,1.2-1.7c0.8-0.4,2.1-0.7,3.9-0.9V68.8z"/>
	<path fill="#fff" d="M244.2,62.1h-5l-0.5,4c-0.2,1.4-0.4,2.3-0.6,2.8c-0.2,0.5-0.5,0.9-0.8,1H237h-0.2v0.5l0.1,3.3h0.7v-3.1h0.6
		h5.1h0.8h0.4v3.1h0.7l0.1-3.3V70h-1.3V62.1z M243.3,70h-5.1c0.5-0.6,0.9-1.9,1.1-3.7l0.4-3.5h3.5V70z"/>
	<path fill="#fff" d="M248.1,58.6c-0.2,0-0.4,0.1-0.5,0.2c-0.1,0.1-0.2,0.3-0.2,0.5c0,0.2,0.1,0.4,0.2,0.5c0.1,0.1,0.3,0.2,0.5,0.2
		c0.2,0,0.4-0.1,0.5-0.2c0.1-0.1,0.2-0.3,0.2-0.5c0-0.2-0.1-0.4-0.2-0.5C248.5,58.7,248.3,58.6,248.1,58.6z"/>
	<rect x="247.7" y="62.1" fill="#fff" width="0.8" height="8.5"/>
	<path fill="#fff" d="M255.2,62.1c-2.3,0-3.5,0.8-3.5,2.3c0,0.7,0.2,1.2,0.7,1.6c0.5,0.4,1,0.7,1.8,0.8l-3.1,3.8h1l3-3.7h0h2.1v3.7
		h0.8v-8.5H255.2z M257.2,66.3h-1.8c-0.9,0-1.6-0.2-2.1-0.5c-0.5-0.3-0.7-0.8-0.7-1.3c0-1.1,0.9-1.7,2.8-1.7h1.8V66.3z"/>
	<polygon fill="#fff" points="139.2,37.4 149.3,37.4 149.3,47.5 152,47.5 152,26 149.3,26 149.3,35 139.2,35 139.2,26 136.4,26 
		136.4,47.5 139.2,47.5 	"/>
	<path fill="#fff" d="M170.4,39.6c0-2.6-0.7-4.6-2.2-6.1c-1.4-1.5-3.2-2.3-5.3-2.3c-2.1,0-3.8,0.8-5.3,2.3c-1.4,1.5-2.2,3.6-2.2,6.1
		c0,2.5,0.7,4.6,2.2,6.1c1.4,1.5,3.2,2.3,5.3,2.3c2.1,0,3.8-0.8,5.3-2.3C169.7,44.1,170.4,42.1,170.4,39.6z M166.3,44
		c-0.8,1.1-2,1.7-3.4,1.7c-1.4,0-2.5-0.6-3.3-1.7c-0.9-1.1-1.3-2.6-1.3-4.4c0-1.8,0.4-3.3,1.3-4.5c0.9-1.1,2-1.7,3.3-1.7
		c1.4,0,2.5,0.6,3.4,1.7c0.8,1.1,1.3,2.6,1.3,4.5C167.6,41.4,167.2,42.9,166.3,44z"/>
	<path fill="#fff" d="M185.6,45.6c1.4-1.6,2-3.7,2-6.3c0-2.5-0.6-4.5-1.7-6c-1.1-1.5-2.7-2.2-4.7-2.2c-1.6,0-3.3,0.7-5.1,2.2h-0.1
		l-0.2-1.8h-2.2v22h2.7v-4.7l-0.1-2.8c1.6,1.2,3.1,1.8,4.5,1.8C182.6,47.9,184.3,47.1,185.6,45.6z M183.6,43.9
		c-0.9,1.1-2,1.7-3.3,1.7c-1.3,0-2.6-0.6-3.9-1.7v-8.4c1.6-1.4,3.1-2.2,4.3-2.2c2.8,0,4.2,2,4.2,5.9
		C184.8,41.2,184.4,42.8,183.6,43.9z"/>
	<path fill="#fff" d="M202.7,46.3l-1-1.8c-1.3,0.8-2.6,1.2-4,1.2c-1.5,0-2.8-0.5-3.8-1.5c-1-1-1.5-2.4-1.6-4h10.8
		c0.1-0.4,0.1-0.9,0.1-1.5c0-2.3-0.6-4.1-1.7-5.5c-1.1-1.3-2.7-2-4.7-2c-1.9,0-3.6,0.8-5.1,2.3c-1.4,1.6-2.1,3.6-2.1,6.1
		c0,2.5,0.7,4.6,2.2,6.1c1.5,1.5,3.3,2.3,5.5,2.3C199.2,47.9,201,47.4,202.7,46.3z M193.9,34.6c0.9-0.9,1.9-1.3,3.1-1.3
		c1.3,0,2.2,0.4,2.9,1.3c0.7,0.9,1,2.1,1,3.7h-8.6C192.5,36.7,193.1,35.5,193.9,34.6z"/>
	<path fill="#fff" d="M208.7,43.8c-0.6,0-1,0.2-1.4,0.6c-0.4,0.4-0.6,0.9-0.6,1.5c0,0.6,0.2,1.1,0.6,1.5c0.4,0.4,0.9,0.6,1.4,0.6
		c0.5,0,1-0.2,1.4-0.6c0.4-0.4,0.6-0.9,0.6-1.5c0-0.6-0.2-1.1-0.6-1.5C209.8,44,209.3,43.8,208.7,43.8z"/>
	<path fill="#fff" d="M229.1,26.1h-4.7v12c0,2-0.3,3.5-1,4.4c-0.6,0.9-1.6,1.3-2.8,1.3s-2.2-0.4-2.8-1.3c-0.6-0.9-0.9-2.3-0.9-4.4
		v-12H212v11.5c0,6.9,2.9,10.3,8.6,10.3c2.8,0,4.9-0.8,6.4-2.5c1.4-1.7,2.1-4.3,2.1-7.8V26.1z"/>
	<path fill="#fff" d="M236.7,26.1l-6.7,21.4h5l1.3-5.1h6.6l1.3,5.1h5.2l-6.7-21.4H236.7z M237.2,38.7l0.5-2c0.3-1.1,0.9-3.4,1.7-6.9
		h0.1c1.1,4.2,1.6,6.5,1.8,6.9l0.5,2H237.2z"/>
	<path fill="#fff" d="M100,1.9C98.6,0.8,96.7,0,94.4,0L5.9,0c0,0-7.3-0.4-5.6,7.3l15,68.4c0,0,1.7,7.7,8.9,6.1l16.5-4.8l0.1-0.8
		c1-12.9-0.1-16.6-1.5-22.9C36.5,41,20.3,23,18.9,21.7c-1.4-1.3-1.9-4.2,3.3-1.6c21.4,10.7,36.1,30.2,37.4,30.1
		c2.1-0.1,28.3-35.8,38.7-46.7C98.9,2.8,99.5,2.3,100,1.9z M58.7,39.1c-7.9,0-14.4-6.5-14.4-14.5c0-8,6.5-14.5,14.4-14.5
		c7.9,0,14.4,6.5,14.4,14.5C73.1,32.6,66.7,39.1,58.7,39.1z"/>
	<path fill="#fff" d="M104,7.9c0,0-0.4-1.3-1.3-2.8C89.6,31,81.6,48.2,80.2,65.3l32.3-9.5c0,0,7.2-1.6,4.9-9.1L104,7.9z"/>
</svg>
