<svg version="1.1" xmlns="http://www.w3.org/2000/svg" viewBox="0 0 200 236">
	<path fill="#6E7D7D" d="M102,166.8l-6.3-34.1c-3.3-17.7-20.6-25.6-36.4-25.6c-15.8,0-33.1,7.9-36.4,25.6l-11.3,61.1l68.3,0
		c2.9,0,5.3,2.4,5.3,5.3c0,2.9-2.4,5.3-5.3,5.3l-74.7,0c-1.6,0-3.1-0.7-4.1-1.9s-1.4-2.8-1.1-4.3l12.5-67.3
		c4.4-23.6,26.6-34.2,46.8-34.2c20.1,0,42.4,10.6,46.8,34.2l6.3,34.1c0.5,2.9-1.4,5.6-4.2,6.2C105.3,171.6,102.6,169.7,102,166.8z
		 M33,72.9c-6-6.2-13-17.8-12.3-37.3C21.5,15.6,35.4,4.4,50.3,0.9c0.9-0.2,2.2-0.4,3.4-0.6C55.2,0.1,57.5,0,59.6,0
		c1.8,0,7.6,0.7,7.8,0.7c2.2,0.5,4.4,1.1,6.5,2c12.5,4.8,23,15.6,23.6,32.9c0.7,19.5-6.3,31.1-12.3,37.3c-7,7.2-16.2,11.2-26.1,11.2
		S40,80.1,33,72.9z M86.4,46.6c-2.1,0.4-4.2,0.6-6.4,0.6c-8.5,0-16.9-3.1-23.6-8.9c-0.7,0.6-1.4,1.2-2.1,1.7
		c-6.3,4.7-13.8,7.1-21.5,7.1c-0.3,0-0.6,0-0.9,0c1.3,7.5,4.2,13.7,8.7,18.4c5,5.2,11.5,8,18.5,8c7,0,13.6-2.8,18.5-8
		C82.3,60.8,85.2,54.3,86.4,46.6z M70.3,12.6c-1.2,6.7-3.6,12.7-6.9,17.8C70,36,78.8,38,87,35.6C86.4,23.6,79.2,16.1,70.3,12.6z
		 M31.3,35.9c0,0.2,0,0.4,0,0.6c5.9,0.4,11.8-1.4,16.7-5c6.2-4.6,10.4-12.1,12-21.2c-0.3,0-0.6,0-0.8,0
		C45.7,10.8,31.9,18.9,31.3,35.9z M53.9,120.3v35.8c0,2.9,2.4,5.3,5.3,5.3c2.9,0,5.3-2.4,5.3-5.3v-35.8c0-2.9-2.4-5.3-5.3-5.3
		C56.3,115,53.9,117.3,53.9,120.3z"/>

		<path fill="#7F2F2F" d="M199.7,179.1c-0.5-1.1-1.3-2-2.4-2.4l-58.6-24.3c-2.3-0.9-4.9,0.1-5.8,2.4l-24.3,58.7c-0.5,1.1-0.5,2.3,0,3.4
			c0.4,1.1,1.3,2,2.4,2.4l39.4,16.3c0.5,0.2,1.1,0.3,1.7,0.3c0.6,0,1.2-0.1,1.7-0.3l27.2-11.3c1.1-0.5,2-1.3,2.4-2.4l16.3-39.4
			C200.1,181.4,200.1,180.2,199.7,179.1z M176.8,214.4l-15.1-6.3c-2.3-0.9-4.9,0.1-5.8,2.4l-6.3,15.2l-31.1-12.9l20.9-50.4
			l50.4,20.9L176.8,214.4z"/>
		<path fill="#7F2F2F" d="M145.3,204.3c0.1,0.3,0.3,0.5,0.6,0.6c0.1,0.1,0.3,0.1,0.4,0.1c0.1,0,0.3,0,0.4-0.1l23.9-9.9
			c0.3-0.1,0.5-0.3,0.6-0.6c0.1-0.3,0.1-0.5,0-0.8l-2.6-6.3c-0.2-0.5-0.8-0.8-1.3-0.6l-16.6,6.9l-2.6-6.3c-0.1-0.3-0.3-0.5-0.6-0.6
			c-0.3-0.1-0.5-0.1-0.8,0l-6.3,2.6c-0.5,0.2-0.8,0.8-0.6,1.4L145.3,204.3z"/>
</svg>
