<?xml version="1.0" encoding="utf-8"?>
<!-- Generator: Adobe Illustrator 19.2.0, SVG Export Plug-In . SVG Version: 6.00 Build 0)  -->
<svg version="1.1" id="Layer_1" xmlns="http://www.w3.org/2000/svg" xmlns:xlink="http://www.w3.org/1999/xlink" x="0px" y="0px"
	 viewBox="0 0 50 38" style="enable-background:new 0 0 50 38;" xml:space="preserve">
<style type="text/css">
	.st0{fill:#2793B2;}
</style>
<g>
	<path class="st0" d="M43.7,38H6.3C2.8,38,0,35.2,0,31.8V6.2C0,2.8,2.8,0,6.3,0h37.5C47.2,0,50,2.8,50,6.2v25.7
		C50,35.2,47.2,38,43.7,38z M6.3,2.4C4.1,2.4,2.4,4,2.4,6.2v25.7c0,2.1,1.7,3.8,3.9,3.8h37.5c2.1,0,3.9-1.7,3.9-3.8V6.2
		c0-2.1-1.7-3.8-3.9-3.8L6.3,2.4z"/>
</g>
<g>
	<path class="st0" d="M25,26.5c-1.4,0-2.8-0.5-3.9-1.4L6.5,13.6C6,13.2,5.9,12.5,6.3,12s1.2-0.6,1.7-0.2l14.5,11.5
		c1.4,1.1,3.5,1.1,4.9,0L42,11.8c0.5-0.4,1.3-0.3,1.7,0.2s0.3,1.2-0.2,1.6L28.9,25.1C27.8,26,26.4,26.5,25,26.5z"/>
</g>
</svg>
